<svg xmlns="http://www.w3.org/2000/svg" viewBox="0 0 70.52 70.65"><defs><style>.a{fill:#555353;}</style></defs><path class="a" d="M43.24,27.94a1.33,1.33,0,0,0,1.33-1.32,1.3,1.3,0,0,0-1.33-1.33H32.94a1.33,1.33,0,0,0-1.33,1.33,1.3,1.3,0,0,0,1.33,1.32Z"/><path class="a" d="M43.24,28.21H32.94a1.6,1.6,0,0,1,0-3.19h10.3a1.59,1.59,0,0,1,1.59,1.6,1.61,1.61,0,0,1-1.59,1.59M32.94,25.6a1,1,0,1,0,0,2h10.3a1,1,0,1,0,0-2Z"/><path class="a" d="M43.24,34.88a1.33,1.33,0,1,0,0-2.65H32.94a1.33,1.33,0,1,0,0,2.65Z"/><path class="a" d="M43.24,35.15H32.94a1.59,1.59,0,0,1,0-3.18h10.3a1.58,1.58,0,0,1,1.59,1.59,1.61,1.61,0,0,1-1.59,1.59m-10.3-2.61a1,1,0,1,0,0,2h10.3a1,1,0,1,0,0-2Z"/><path class="a" d="M43.24,41.87a1.33,1.33,0,1,0,0-2.65H32.94a1.33,1.33,0,1,0,0,2.65Z"/><path class="a" d="M43.24,42.13H32.94a1.59,1.59,0,1,1,0-3.18h10.3a1.59,1.59,0,0,1,1.59,1.59,1.61,1.61,0,0,1-1.59,1.59m-10.3-2.6a1,1,0,1,0,0,2h10.3a1,1,0,1,0,0-2Z"/><path class="a" d="M43.24,48.85a1.33,1.33,0,1,0,0-2.65H32.94a1.33,1.33,0,1,0,0,2.65Z"/><path class="a" d="M43.24,49.12H32.94a1.59,1.59,0,1,1,0-3.18h10.3a1.58,1.58,0,0,1,1.59,1.59,1.61,1.61,0,0,1-1.59,1.59m-10.3-2.61a1,1,0,1,0,0,2h10.3a1,1,0,1,0,0-2Z"/><path class="a" d="M43.24,55.93a1.33,1.33,0,0,0,0-2.66H32.94a1.33,1.33,0,0,0,0,2.66Z"/><path class="a" d="M43.24,56.24H32.94a1.6,1.6,0,0,1,0-3.19h10.3a1.59,1.59,0,0,1,1.59,1.6,1.61,1.61,0,0,1-1.59,1.59m-10.3-2.61a1,1,0,1,0,0,2h10.3a1,1,0,1,0,0-2Z"/><path class="a" d="M28,16.14a1.33,1.33,0,0,0,1.32-1.33V12.25a1.33,1.33,0,1,0-2.65,0v2.61A1.33,1.33,0,0,0,28,16.14"/><path class="a" d="M28,16.45a1.59,1.59,0,0,1-1.6-1.59V12.25a1.6,1.6,0,0,1,3.19,0v2.61A1.59,1.59,0,0,1,28,16.45m0-5.22a1,1,0,0,0-1,1v2.61a1,1,0,0,0,2,0V12.25a1,1,0,0,0-1-1"/><path class="a" d="M21.44,14.86a1.33,1.33,0,0,0,1.33,1.32,1.3,1.3,0,0,0,1.33-1.32V12.25a1.34,1.34,0,0,0-1.33-1.33,1.31,1.31,0,0,0-1.33,1.33Z"/><path class="a" d="M22.77,16.45a1.58,1.58,0,0,1-1.59-1.59V12.25a1.59,1.59,0,1,1,3.18,0v2.61a1.59,1.59,0,0,1-1.59,1.59m0-5.22a1,1,0,0,0-1,1v2.61a1,1,0,0,0,2,0V12.25a1,1,0,0,0-1-1"/><path class="a" d="M12.29,41.87v2.61a1.33,1.33,0,0,0,2.65,0V41.87a1.33,1.33,0,1,0-2.65,0"/><path class="a" d="M13.62,46.07A1.58,1.58,0,0,1,12,44.48V41.87a1.59,1.59,0,0,1,3.18,0v2.61a1.59,1.59,0,0,1-1.59,1.59m0-5.22a1,1,0,0,0-1,1v2.61a1,1,0,0,0,2,0V41.87a1,1,0,0,0-1-1"/><path class="a" d="M34.71,12.64V8.31a1.33,1.33,0,0,0-1-1.28L19,3.36V1.77a1.33,1.33,0,1,0-2.65,0V25.25l-9.6,3.62a1.25,1.25,0,0,0-.84,1.24V44.48a1.33,1.33,0,0,0,2.66,0V31l9.59-3.62A1.26,1.26,0,0,0,19,26.13V6.06L32.1,9.33v3.31A1.33,1.33,0,0,0,33.42,14a1.39,1.39,0,0,0,1.29-1.33"/><path class="a" d="M7.21,46.24a1.76,1.76,0,0,1-1.77-1.76V30.11a1.76,1.76,0,0,1,1.15-1.64L15.92,25V1.77a1.77,1.77,0,1,1,3.53,0V3L33.82,6.59a1.69,1.69,0,0,1,1.33,1.68V12.6a1.77,1.77,0,1,1-3.54,0v-3L19.41,6.59V26.13a1.74,1.74,0,0,1-1.15,1.63l-9.33,3.5V44.43a1.71,1.71,0,0,1-1.72,1.81M17.68.88a.89.89,0,0,0-.88.89V25.55L6.9,29.27a.84.84,0,0,0-.58.79V44.43a.89.89,0,1,0,1.77,0V30.68L18,27a.84.84,0,0,0,.58-.8V5.48l14,3.5v3.66a.89.89,0,1,0,1.77,0V8.31a.86.86,0,0,0-.67-.84l-15-3.76V1.77a1,1,0,0,0-.93-.89"/><path class="a" d="M12.29,36.61a1.33,1.33,0,0,0,2.65,0V34a1.33,1.33,0,1,0-2.65,0Z"/><path class="a" d="M13.62,38.2A1.58,1.58,0,0,1,12,36.61V34a1.59,1.59,0,1,1,3.18,0v2.61a1.59,1.59,0,0,1-1.59,1.59m0-5.22a1,1,0,0,0-1,1v2.61a1,1,0,0,0,2,0V34a1,1,0,0,0-1-1"/><path class="a" d="M18.48,49.69V52.3a1.33,1.33,0,1,0,2.65,0V49.69a1.33,1.33,0,0,0-1.32-1.32,1.36,1.36,0,0,0-1.33,1.32"/><path class="a" d="M19.76,53.94a1.59,1.59,0,0,1-1.59-1.59V49.74a1.46,1.46,0,0,1,.49-1.11,1.56,1.56,0,0,1,1.1-.48,1.58,1.58,0,0,1,1.59,1.59v2.61a1.61,1.61,0,0,1-1.59,1.59m0-5.26a1,1,0,0,0-1,1V52.3a1,1,0,1,0,2,0V49.69a1,1,0,0,0-1-1"/><path class="a" d="M18.48,57.56v5.22a1.33,1.33,0,1,0,2.65,0V57.56a1.33,1.33,0,0,0-1.32-1.32,1.3,1.3,0,0,0-1.33,1.32"/><path class="a" d="M19.76,64.37a1.59,1.59,0,0,1-1.59-1.59V57.56a1.42,1.42,0,0,1,.49-1.1,1.56,1.56,0,0,1,2.69,1.1v5.22a1.58,1.58,0,0,1-1.59,1.59m0-7.82a.87.87,0,0,0-.7.31,1,1,0,0,0-.31.7v5.22a1,1,0,1,0,2,0V57.56a1,1,0,0,0-1-1"/><path class="a" d="M18.48,36.61a1.33,1.33,0,0,0,2.65,0V34a1.33,1.33,0,1,0-2.65,0Z"/><path class="a" d="M19.76,38.2a1.59,1.59,0,0,1-1.59-1.59V34a1.59,1.59,0,1,1,3.18,0v2.61a1.58,1.58,0,0,1-1.59,1.59m0-5.22a1,1,0,0,0-1,1v2.61a1,1,0,0,0,2,0V34a1,1,0,0,0-1-1"/><path class="a" d="M18.48,44.48a1.33,1.33,0,0,0,2.65,0V41.87a1.33,1.33,0,1,0-2.65,0Z"/><path class="a" d="M19.76,46.07a1.59,1.59,0,0,1-1.59-1.59V41.87a1.59,1.59,0,0,1,3.18,0v2.61a1.58,1.58,0,0,1-1.59,1.59m0-5.22a1,1,0,0,0-1,1v2.61a1,1,0,0,0,2,0V41.87a1,1,0,0,0-1-1"/><path class="a" d="M28.91,63.66V22.86l18.31-4.6V67.47a1.33,1.33,0,0,0,2.65,0V16.58a1.26,1.26,0,0,0-.49-1,1.15,1.15,0,0,0-1.1-.22l-21,5.22a1.28,1.28,0,0,0-1,1.28V63.71A1.33,1.33,0,0,0,27.63,65a1.31,1.31,0,0,0,1.28-1.38"/><path class="a" d="M48.54,69.24a1.78,1.78,0,0,1-1.77-1.77V18.83L29.36,23.21v40.5a1.77,1.77,0,0,1-3.54,0V21.8a1.7,1.7,0,0,1,1.32-1.68l21-5.22a1.83,1.83,0,0,1,1.5.31,1.69,1.69,0,0,1,.67,1.37V67.47a1.71,1.71,0,0,1-1.73,1.77m-.88-51.56V67.47a.89.89,0,0,0,1.77,0V16.58a.75.75,0,0,0-.36-.66.92.92,0,0,0-.75-.18L27.41,21a.84.84,0,0,0-.66.84V63.66a.89.89,0,1,0,1.77,0V22.5Z"/><path class="a" d="M52.88,56.1v2.61A1.36,1.36,0,0,0,54.25,60a1.34,1.34,0,0,0,1.37-1.33V56.1a1.37,1.37,0,0,0-2.74,0"/><path class="a" d="M54.2,60.35a1.62,1.62,0,0,1-1.63-1.59V56.15a1.64,1.64,0,0,1,3.27,0v2.61a1.62,1.62,0,0,1-1.64,1.59m0-5.26a1,1,0,0,0-1.06,1v2.6a1.06,1.06,0,0,0,2.12,0v-2.6a1,1,0,0,0-1.06-1"/><path class="a" d="M66.67,66.85V33.16a1.33,1.33,0,0,0-1.33-1.33H48.76a1.33,1.33,0,0,0-1.32,1.33v34a1.33,1.33,0,0,0,1.32,1.32,1.3,1.3,0,0,0,1.33-1.32V34.44H64V66.8a1.33,1.33,0,0,0,2.65,0"/><path class="a" d="M48.76,68.93A1.77,1.77,0,0,1,47,67.16v-34a1.77,1.77,0,0,1,1.76-1.77H65.34a1.77,1.77,0,0,1,1.77,1.77V66.85a1.77,1.77,0,1,1-3.53,0V34.93H50.49V67.2a1.71,1.71,0,0,1-1.73,1.73m0-36.61a.89.89,0,0,0-.88.88v34a.89.89,0,1,0,1.77,0V34H64.46V66.85a.89.89,0,0,0,1.77,0V33.16a.89.89,0,0,0-.89-.89H48.76Z"/><path class="a" d="M53.36,67.6H7v-8a5.21,5.21,0,1,0-2.56,0v8H1.81a1.33,1.33,0,0,0,0,2.65H68.75a1.33,1.33,0,0,0,0-2.65H53.36ZM5.7,57.12a2.61,2.61,0,0,1,0-5.22,2.64,2.64,0,0,1,2.61,2.61A2.61,2.61,0,0,1,5.7,57.12"/><path class="a" d="M68.75,70.65h-67a1.77,1.77,0,1,1,0-3.54H3.93V59.86a5.66,5.66,0,0,1,1.73-11,5.79,5.79,0,0,1,5.75,5.7,5.66,5.66,0,0,1-3.94,5.4v7.25H68.75a1.77,1.77,0,0,1,1.77,1.77,1.74,1.74,0,0,1-1.77,1.72M1.77,68a.89.89,0,1,0,0,1.77H68.7a.89.89,0,1,0,0-1.77H6.59v-8.8l.31-.09a4.73,4.73,0,0,0,3.58-4.59,4.78,4.78,0,1,0-9.55,0,4.73,4.73,0,0,0,3.58,4.59l.31.09V68ZM5.7,57.56a3,3,0,1,1,3.05-3.05,3.06,3.06,0,0,1-3,3.05m0-5.21a2.17,2.17,0,1,0,2.17,2.16A2.16,2.16,0,0,0,5.7,52.35"/><path class="a" d="M52.88,43a1.36,1.36,0,0,0,1.37,1.32A1.34,1.34,0,0,0,55.62,43V40.41a1.37,1.37,0,0,0-1.37-1.33,1.34,1.34,0,0,0-1.37,1.33Z"/><path class="a" d="M54.2,44.65a1.62,1.62,0,0,1-1.63-1.59V40.45a1.64,1.64,0,0,1,3.27,0v2.61a1.62,1.62,0,0,1-1.64,1.59m0-5.26a1,1,0,0,0-1.06,1V43a1.06,1.06,0,0,0,2.12,0V40.41a1,1,0,0,0-1.06-1"/><path class="a" d="M52.88,50.89a1.36,1.36,0,0,0,1.37,1.32,1.34,1.34,0,0,0,1.37-1.32V48.28A1.37,1.37,0,0,0,54.25,47a1.34,1.34,0,0,0-1.37,1.33Z"/><path class="a" d="M54.2,52.48a1.62,1.62,0,0,1-1.63-1.59V48.28a1.64,1.64,0,0,1,3.27,0v2.61a1.6,1.6,0,0,1-1.64,1.59m0-5.22a1,1,0,0,0-1.06,1v2.61a1.06,1.06,0,0,0,2.12,0V48.28a1,1,0,0,0-1.06-1"/><path class="a" d="M59.64,39.13a1.34,1.34,0,0,0-1.37,1.32v2.61a1.37,1.37,0,0,0,1.37,1.33A1.34,1.34,0,0,0,61,43.06V40.45a1.36,1.36,0,0,0-1.37-1.32"/><path class="a" d="M59.64,44.65A1.62,1.62,0,0,1,58,43.06V40.45a1.64,1.64,0,0,1,3.28,0v2.61a1.65,1.65,0,0,1-1.64,1.59m0-5.26a1,1,0,0,0-1.06,1V43a1.06,1.06,0,0,0,2.12,0V40.41a1.07,1.07,0,0,0-1.06-1"/><path class="a" d="M59.64,46.82a1.34,1.34,0,0,0-1.37,1.33v2.61a1.37,1.37,0,0,0,1.37,1.32A1.34,1.34,0,0,0,61,50.76V48.15a1.4,1.4,0,0,0-1.37-1.33"/><path class="a" d="M59.64,52.35A1.63,1.63,0,0,1,58,50.76V48.15a1.64,1.64,0,0,1,3.28,0v2.61a1.62,1.62,0,0,1-1.64,1.59m0-5.22a1,1,0,0,0-1.06,1v2.61a1.06,1.06,0,0,0,2.12,0V48.15a1,1,0,0,0-1.06-1"/><path class="a" d="M59.64,54.82a1.34,1.34,0,0,0-1.37,1.33v2.61a1.37,1.37,0,0,0,1.37,1.32A1.34,1.34,0,0,0,61,58.76V56.15a1.37,1.37,0,0,0-1.37-1.33"/><path class="a" d="M59.64,60.35A1.63,1.63,0,0,1,58,58.76V56.15a1.64,1.64,0,0,1,3.28,0v2.61a1.65,1.65,0,0,1-1.64,1.59m0-5.26a1,1,0,0,0-1.06,1v2.6a1.06,1.06,0,0,0,2.12,0v-2.6a1.06,1.06,0,0,0-1.06-1"/></svg>