<svg xmlns="http://www.w3.org/2000/svg" viewBox="0 0 59.85 59.82"><defs><style>.a{fill:#555353;}</style></defs><path class="a" d="M50.85,33.85V55.3l-4.56-3.85a1.17,1.17,0,0,0-1.46,0L38.11,56.3l-7.36-5.23a1.2,1.2,0,0,0-1.46,0L22.45,56.3l-6.91-5.23a1.19,1.19,0,0,0-1.45,0L9,55.48V3.06H50.85v16.7a1.5,1.5,0,0,0,3-.14V3.06l4.71,0a1.43,1.43,0,0,0,1.3-1.53A1.49,1.49,0,0,0,58.55,0L1.31,0A1.43,1.43,0,0,0,0,1.57,1.46,1.46,0,0,0,1.31,3.1H6V58.29a1.59,1.59,0,0,0,.67,1.34,1.9,1.9,0,0,0,1.72-.07l6.39-5.39,6.91,5.35a1.19,1.19,0,0,0,1.45,0L30,54.17l7.36,5.35a1.2,1.2,0,0,0,1.46,0l6.72-4.93,6.06,5a1.44,1.44,0,0,0,.7.26,1.39,1.39,0,0,0,.64-.19,1.83,1.83,0,0,0,.86-1.38V33.74a1.51,1.51,0,0,0-1.38-1.42,1.49,1.49,0,0,0-1.61,1.53"/><path class="a" d="M28.81,36.88a8.7,8.7,0,0,1-3-.83,8,8,0,0,1-2.32-1.68l.71-1.12a1.07,1.07,0,0,1,.26-.26.68.68,0,0,1,.38-.11.89.89,0,0,1,.59.26c.23.19.49.37.79.6a6.2,6.2,0,0,0,1.12.63,4.58,4.58,0,0,0,1.57.41l.48-7.17c-.63-.19-1.27-.41-1.86-.63A6.54,6.54,0,0,1,25.89,26a4.13,4.13,0,0,1-1.16-1.46,4.76,4.76,0,0,1-.44-2.2,5,5,0,0,1,.37-1.94,4.9,4.9,0,0,1,1.12-1.68,5.34,5.34,0,0,1,1.83-1.2,6.47,6.47,0,0,1,2.5-.49l.15-2a.62.62,0,0,1,.19-.44.53.53,0,0,1,.49-.19h.89l-.18,2.69a6.89,6.89,0,0,1,2.46.75,8.22,8.22,0,0,1,1.83,1.34l-.6.9a.77.77,0,0,1-.63.41,1.23,1.23,0,0,1-.49-.19L33.55,20a9.41,9.41,0,0,0-.9-.45,4.66,4.66,0,0,0-1.19-.33L31,25.71c.64.18,1.31.41,1.91.63a6.49,6.49,0,0,1,1.71.9,4.33,4.33,0,0,1,1.24,1.38,4.42,4.42,0,0,1,.48,2.09A6.55,6.55,0,0,1,35.94,33a5.52,5.52,0,0,1-3.1,3.21,6.19,6.19,0,0,1-2.58.53l-.15,2.43a.52.52,0,0,1-.22.44.62.62,0,0,1-.49.19h-.89ZM26.6,22.23a2.48,2.48,0,0,0,.23,1.12,2.81,2.81,0,0,0,.63.86,4.21,4.21,0,0,0,.94.64,9.5,9.5,0,0,0,1.19.48L30,19.24a5.86,5.86,0,0,0-1.53.34,3.64,3.64,0,0,0-1,.67,2.31,2.31,0,0,0-.59.9,2.65,2.65,0,0,0-.23,1.08m7.51,9A2.28,2.28,0,0,0,33.85,30a2.35,2.35,0,0,0-.67-.82,4.42,4.42,0,0,0-1-.6,11.25,11.25,0,0,0-1.23-.49l-.45,6.73a5.1,5.1,0,0,0,1.57-.37,3.57,3.57,0,0,0,1.16-.79,2.85,2.85,0,0,0,.7-1.12,4.12,4.12,0,0,0,.19-1.38"/><path class="a" d="M29.48,40.13H28.4l.18-3.07a7.9,7.9,0,0,1-2.87-.82,8.62,8.62,0,0,1-2.4-1.72l-.11-.11L24,33.18a.81.81,0,0,1,.33-.3,1,1,0,0,1,1.16.19l.79.59a7,7,0,0,0,1.12.64,4.21,4.21,0,0,0,1.3.37l.49-6.83c-.6-.19-1.16-.38-1.72-.6a6.31,6.31,0,0,1-1.68-1,4.87,4.87,0,0,1-1.23-1.54,5.12,5.12,0,0,1-.45-2.28,5.55,5.55,0,0,1,.41-2,5.79,5.79,0,0,1,1.16-1.76,6.08,6.08,0,0,1,1.87-1.23A6.82,6.82,0,0,1,29.93,17L30,15.17a1,1,0,0,1,.26-.56.73.73,0,0,1,.6-.26H32L31.79,17a6.48,6.48,0,0,1,2.36.74A7.23,7.23,0,0,1,36,19.17l.11.11-.67,1a1,1,0,0,1-.79.48,1.42,1.42,0,0,1-.56-.18l-.67-.38a7.57,7.57,0,0,0-.9-.44,3.26,3.26,0,0,0-.93-.27l-.41,6.21c.59.18,1.19.41,1.79.59a7.24,7.24,0,0,1,1.76.94A4,4,0,0,1,36,28.7a4.34,4.34,0,0,1,.48,2.16,7,7,0,0,1-.41,2.36,5.09,5.09,0,0,1-1.23,1.94,6.43,6.43,0,0,1-2,1.38,5.77,5.77,0,0,1-2.47.52l-.15,2.25a.94.94,0,0,1-.26.56c-.07.18-.26.26-.52.26m-.67-.38h.71a.33.33,0,0,0,.33-.15.45.45,0,0,0,.15-.33l.19-2.58h.19a5.81,5.81,0,0,0,2.5-.49,5.94,5.94,0,0,0,1.87-1.27,5.66,5.66,0,0,0,1.16-1.83,6.45,6.45,0,0,0,.41-2.24,4,4,0,0,0-.45-2,5,5,0,0,0-1.16-1.34,6.23,6.23,0,0,0-1.64-.9c-.64-.22-1.28-.45-1.91-.64L31,26l.37-6.91.19,0a6.12,6.12,0,0,1,1.23.34c.34.15.68.3.94.45l.67.41a.87.87,0,0,0,.37.15c.19,0,.34-.11.49-.34l.49-.75a9.32,9.32,0,0,0-1.69-1.19,6.22,6.22,0,0,0-2.39-.71l-.18,0,.18-2.65H31a.35.35,0,0,0-.33.15.61.61,0,0,0-.15.37l-.15,2.13h-.19a6.23,6.23,0,0,0-2.43.45A5.51,5.51,0,0,0,26,19a5,5,0,0,0-1.09,1.6,5.22,5.22,0,0,0,0,4A4,4,0,0,0,26,26a5.57,5.57,0,0,0,1.61.89c.6.23,1.23.45,1.83.64l.15,0-.52,7.54-.19,0a5.28,5.28,0,0,1-1.65-.45,12.6,12.6,0,0,1-1.15-.67c-.3-.23-.6-.42-.83-.6s-.52-.26-.74-.15a.44.44,0,0,0-.19.19l-.64,1a8.63,8.63,0,0,0,2.17,1.53,9,9,0,0,0,2.92.78H29Zm1.45-4.67.49-7.21L31,28c.45.15.86.3,1.27.48a4.32,4.32,0,0,1,1,.64A3.4,3.4,0,0,1,34,30a2.65,2.65,0,0,1,.26,1.23A3.9,3.9,0,0,1,34,32.66a2.91,2.91,0,0,1-.75,1.15,4.66,4.66,0,0,1-1.2.83,5.52,5.52,0,0,1-1.6.41Zm.83-6.68-.42,6.27a5.34,5.34,0,0,0,1.27-.33A3.35,3.35,0,0,0,33,33.59a2.82,2.82,0,0,0,.67-1.05,3.82,3.82,0,0,0,.22-1.3,2.44,2.44,0,0,0-.22-1.09,2.49,2.49,0,0,0-.63-.78,4.81,4.81,0,0,0-1-.6,6.14,6.14,0,0,0-1-.37m-1.31-2.81-.23-.07A8.68,8.68,0,0,1,28.36,25a3.48,3.48,0,0,1-1-.67,2.56,2.56,0,0,1-.68-.9,2.9,2.9,0,0,1-.26-1.19,2.84,2.84,0,0,1,.23-1.12,2.77,2.77,0,0,1,.67-1,3.26,3.26,0,0,1,1.12-.71A6.12,6.12,0,0,1,30,19.09l.22,0Zm0-6.16a4.79,4.79,0,0,0-1.24.3,3.35,3.35,0,0,0-1,.63,2.29,2.29,0,0,0-.56.86,2.93,2.93,0,0,0-.18,1,2.29,2.29,0,0,0,.22,1.05,2.4,2.4,0,0,0,.6.78,3.66,3.66,0,0,0,.89.6c.3.15.6.26.94.41Z"/><path class="a" d="M29.48,40.16H28.36l.19-3.06a7.69,7.69,0,0,1-2.84-.82,8.08,8.08,0,0,1-2.4-1.72l-.11-.11L24,33.22a.83.83,0,0,1,.34-.3.94.94,0,0,1,1.16.18c.22.19.48.38.78.6a9.54,9.54,0,0,0,1.09.64,4.16,4.16,0,0,0,1.3.37l.49-6.8c-.6-.19-1.16-.37-1.72-.6a6.31,6.31,0,0,1-1.68-1,4.21,4.21,0,0,1-1.23-1.53,5.15,5.15,0,0,1-.45-2.28,5.65,5.65,0,0,1,.41-2,5.87,5.87,0,0,1,1.16-1.75,5.71,5.71,0,0,1,1.87-1.24A6.6,6.6,0,0,1,29.93,17l.11-1.8a1.21,1.21,0,0,1,.26-.59.77.77,0,0,1,.64-.27h1.12l-.19,2.73a6.88,6.88,0,0,1,2.32.71,7.91,7.91,0,0,1,1.9,1.38l.11.12-.67,1a.91.91,0,0,1-.78.49,1.24,1.24,0,0,1-.56-.19l-.68-.37c-.26-.15-.56-.3-.89-.45a4.82,4.82,0,0,0-.9-.26l-.41,6.16c.6.19,1.2.38,1.79.6a7.06,7.06,0,0,1,1.76.94,4.23,4.23,0,0,1,1.76,3.66,6.71,6.71,0,0,1-.42,2.35A5.53,5.53,0,0,1,35,35.23a6.5,6.5,0,0,1-2,1.39,6.62,6.62,0,0,1-2.46.52l-.15,2.24a1.3,1.3,0,0,1-.27.6,1.47,1.47,0,0,1-.63.18m-.67-.41h.67a.36.36,0,0,0,.3-.11.7.7,0,0,0,.15-.33l.18-2.62h.19a5.91,5.91,0,0,0,2.5-.49,5.65,5.65,0,0,0,1.83-1.27,5.34,5.34,0,0,0,1.16-1.83,6.16,6.16,0,0,0,.41-2.24,4.08,4.08,0,0,0-.44-2,4.51,4.51,0,0,0-1.16-1.34,6.13,6.13,0,0,0-1.65-.9c-.63-.22-1.27-.45-1.9-.64l-.15,0L31.38,19l.23,0a5.53,5.53,0,0,1,1.23.33c.34.15.67.3.94.45l.67.41a.83.83,0,0,0,.37.15.63.63,0,0,0,.45-.3l.49-.75a8.11,8.11,0,0,0-1.69-1.19,6.22,6.22,0,0,0-2.39-.71l-.18,0,.18-2.65H31a.31.31,0,0,0-.3.15.7.7,0,0,0-.15.33l-.15,2.17h-.18a5.89,5.89,0,0,0-2.39.45A5.24,5.24,0,0,0,26.08,19,4.67,4.67,0,0,0,25,20.62a4.54,4.54,0,0,0-.38,1.87A4.86,4.86,0,0,0,25,24.58,3.71,3.71,0,0,0,26.15,26a5.91,5.91,0,0,0,1.57.89c.6.23,1.24.45,1.83.64l.15,0-.56,7.58-.22,0a5,5,0,0,1-1.65-.44A10.61,10.61,0,0,1,26.12,34c-.3-.22-.6-.41-.83-.6a.85.85,0,0,0-.44-.22.7.7,0,0,0-.27.08.39.39,0,0,0-.18.18l-.64,1a8,8,0,0,0,2.13,1.5,9,9,0,0,0,2.92.78H29Zm1.45-4.67.49-7.24.26.07a12,12,0,0,1,1.27.49,5.5,5.5,0,0,1,1,.63,3.18,3.18,0,0,1,.74.9,2.59,2.59,0,0,1,.27,1.27,3.64,3.64,0,0,1-.27,1.45,2.76,2.76,0,0,1-.74,1.16,4.27,4.27,0,0,1-1.24.83,5.47,5.47,0,0,1-1.64.41Zm.86-6.68-.41,6.24A6.53,6.53,0,0,0,32,34.3a3.35,3.35,0,0,0,1.09-.75,2.91,2.91,0,0,0,.67-1A3.75,3.75,0,0,0,34,31.2a2.47,2.47,0,0,0-.22-1.09,2.65,2.65,0,0,0-.64-.78,4.89,4.89,0,0,0-1-.6,5.17,5.17,0,0,1-1-.33m-1.34-2.81-.23-.07A8.68,8.68,0,0,1,28.36,25a4.44,4.44,0,0,1-1-.67,2.53,2.53,0,0,1-.67-.9,3,3,0,0,1-.26-1.23,3.07,3.07,0,0,1,.22-1.16,2.53,2.53,0,0,1,.67-1,3.41,3.41,0,0,1,1.12-.71A5.75,5.75,0,0,1,30,19l.26,0Zm0-6.12a5.54,5.54,0,0,0-1.23.3,3.11,3.11,0,0,0-1,.63,2,2,0,0,0-.56.86,2.66,2.66,0,0,0-.19,1A2.29,2.29,0,0,0,27,23.28a2.4,2.4,0,0,0,.6.78,3.54,3.54,0,0,0,.9.6,4.86,4.86,0,0,0,.89.37Z"/><path class="a" d="M29.48,40.35H28.17l.23-3.1a9.19,9.19,0,0,1-2.73-.78,8.2,8.2,0,0,1-2.43-1.76L23,34.49l.89-1.39a1,1,0,0,1,.41-.37,1.22,1.22,0,0,1,1.39.19c.22.15.48.37.78.56a5.75,5.75,0,0,0,1.08.59,3.7,3.7,0,0,0,1.05.34L29.07,28l-1.61-.56a7.39,7.39,0,0,1-1.75-1,4.24,4.24,0,0,1-1.27-1.57A5,5,0,0,1,24,22.45a5.84,5.84,0,0,1,.41-2.09,5.09,5.09,0,0,1,1.2-1.79A5.84,5.84,0,0,1,27.5,17.3a6.21,6.21,0,0,1,2.28-.49l.11-1.6a1.29,1.29,0,0,1,.3-.71,1,1,0,0,1,.78-.34h1.31l-.19,2.73a7.55,7.55,0,0,1,2.21.71A8,8,0,0,1,36.24,19l.23.22-.75,1.16a1.23,1.23,0,0,1-1,.6,1.47,1.47,0,0,1-.68-.23c-.18-.11-.41-.22-.67-.37a4.29,4.29,0,0,0-.86-.41,6.4,6.4,0,0,0-.67-.23l-.41,5.8c.56.18,1.12.37,1.64.56a6.89,6.89,0,0,1,1.8,1,4.31,4.31,0,0,1,1.34,1.53,4.63,4.63,0,0,1,.53,2.28,6.52,6.52,0,0,1-.45,2.43,6,6,0,0,1-1.27,2,7.06,7.06,0,0,1-2,1.42,6.85,6.85,0,0,1-2.35.53l-.15,2.05a1.72,1.72,0,0,1-.3.71,1,1,0,0,1-.75.3m-.9-.37h.94a.72.72,0,0,0,.48-.19,1.23,1.23,0,0,0,.23-.49l.15-2.39h.18a5.89,5.89,0,0,0,5.5-3.77,6.73,6.73,0,0,0,.41-2.32A4,4,0,0,0,36,28.73a3.73,3.73,0,0,0-1.23-1.38,7.4,7.4,0,0,0-1.72-.9c-.6-.22-1.16-.41-1.76-.6l-.15-.07.45-6.5.23,0a5.42,5.42,0,0,1,.93.26c.34.15.63.3.9.45l.67.37a1.06,1.06,0,0,0,.48.19.78.78,0,0,0,.64-.41l.6-.9a8.84,8.84,0,0,0-1.83-1.35,7,7,0,0,0-2.28-.71l-.19,0,.19-2.69H31a.54.54,0,0,0-.48.22,1.23,1.23,0,0,0-.23.49l-.15,1.94h-.18a6.65,6.65,0,0,0-2.32.48,5.92,5.92,0,0,0-1.79,1.2,5.1,5.1,0,0,0-1.12,1.68,5,5,0,0,0-.38,1.94,5,5,0,0,0,.45,2.21,4.11,4.11,0,0,0,1.16,1.46,6.62,6.62,0,0,0,1.64.93c.56.22,1.13.41,1.72.6l.15,0L29,34.82l-.19,0a5.72,5.72,0,0,1-1.35-.37,8,8,0,0,1-1.12-.63c-.3-.23-.59-.42-.78-.6a.76.76,0,0,0-1-.15c-.11.07-.23.15-.26.26l-.71,1.12a8.28,8.28,0,0,0,2.31,1.68,8.65,8.65,0,0,0,2.81.79l.18,0Zm.9,0h-.86l.19-3.06h0a8.83,8.83,0,0,1-3-.83,9.1,9.1,0,0,1-2.2-1.53l-.12-.11.71-1.08a.54.54,0,0,1,.27-.23.76.76,0,0,1,.93.15c.22.19.49.38.78.6a6.59,6.59,0,0,0,1.13.64,5,5,0,0,0,1.56.41h0l.6-7.25c-.64-.19-1.27-.41-1.87-.64A6.28,6.28,0,0,1,26,26.08a4,4,0,0,1-1.16-1.46,4.65,4.65,0,0,1-.45-2.17,5,5,0,0,1,.37-1.94,5.32,5.32,0,0,1,3-2.88,6.61,6.61,0,0,1,2.46-.44h0l.15-2a.59.59,0,0,1,.19-.45.49.49,0,0,1,.44-.19h.86l-.18,2.69h0a6.43,6.43,0,0,1,2.43.75,7.81,7.81,0,0,1,1.72,1.23l.11.11-.56.86a.76.76,0,0,1-.6.41.79.79,0,0,1-.44-.15c-.19-.11-.41-.26-.68-.41a8.21,8.21,0,0,0-.89-.44,4.86,4.86,0,0,0-1.2-.34h0l-.44,6.61c.63.19,1.3.41,1.9.64a6.67,6.67,0,0,1,1.72.89,4.85,4.85,0,0,1,1.23,1.39,4.31,4.31,0,0,1,.45,2.09A6.55,6.55,0,0,1,36,33.18a5.13,5.13,0,0,1-1.2,1.87,6.25,6.25,0,0,1-4.48,1.83l-.15,2.42a.62.62,0,0,1-.18.45.75.75,0,0,1-.49.19M29,39.57h.49a.25.25,0,0,0,.18-.08.31.31,0,0,0,.12-.22L30,36.5h.38a5.75,5.75,0,0,0,4.22-1.72A4.45,4.45,0,0,0,35.68,33a5.89,5.89,0,0,0,.38-2.17,4.07,4.07,0,0,0-.42-1.9,3.83,3.83,0,0,0-1.12-1.27,7,7,0,0,0-1.6-.86c-.64-.23-1.27-.45-1.91-.64l-.33-.11.48-7.29.41.08a5.34,5.34,0,0,1,1.27.33c.34.15.67.3.94.45l.67.41a.63.63,0,0,0,.26.12s.15,0,.3-.23l.41-.6a7.49,7.49,0,0,0-1.53-1,6.88,6.88,0,0,0-2.32-.68l-.37,0L31.38,15H30.9a.23.23,0,0,0-.19.08.33.33,0,0,0-.11.22l-.07,2.28h-.38a5.41,5.41,0,0,0-2.31.45,5,5,0,0,0-2.73,2.65,4.87,4.87,0,0,0-.38,1.79,4.36,4.36,0,0,0,.42,2,4,4,0,0,0,1,1.31,6,6,0,0,0,1.53.9c.6.22,1.2.45,1.83.63l.3.08-.56,7.92-.41,0a5.28,5.28,0,0,1-1.72-.45A10.54,10.54,0,0,1,26,34.15a8.86,8.86,0,0,1-.82-.6.75.75,0,0,0-.34-.19.33.33,0,0,0-.19,0c-.07,0-.11.08-.11.11l-.56.86a7.65,7.65,0,0,0,2,1.39,8.57,8.57,0,0,0,2.84.78l.37,0Zm1-4.26.52-7.7.49.15a9.34,9.34,0,0,1,1.27.49,5.45,5.45,0,0,1,1.12.67,2.7,2.7,0,0,1,.78,1,2.91,2.91,0,0,1,.3,1.34,4,4,0,0,1-.26,1.54A3.69,3.69,0,0,1,33.48,34a4.65,4.65,0,0,1-1.27.86,4.82,4.82,0,0,1-1.68.41Zm.86-7.21-.45,6.8h0a4.82,4.82,0,0,0,1.57-.38,3.17,3.17,0,0,0,1.16-.78,3,3,0,0,0,.71-1.12,4.4,4.4,0,0,0,.22-1.39,2.28,2.28,0,0,0-.26-1.15,2.94,2.94,0,0,0-.67-.86,4.42,4.42,0,0,0-1-.6,7.3,7.3,0,0,0-1.31-.52m-.41,6.76.45-6.69.22.08c.34.11.67.26,1,.37a6.12,6.12,0,0,1,1,.6,2.27,2.27,0,0,1,.67.82,2.79,2.79,0,0,1,.26,1.16,4.12,4.12,0,0,1-.22,1.38,2.58,2.58,0,0,1-.71,1.08,4.63,4.63,0,0,1-1.16.79,4.5,4.5,0,0,1-1.3.37Zm.78-6.2-.37,5.75a3.89,3.89,0,0,0,2-1,2.35,2.35,0,0,0,.59-1,3.25,3.25,0,0,0,.23-1.23,1.93,1.93,0,0,0-.23-1,2.12,2.12,0,0,0-.59-.71A3.21,3.21,0,0,0,32,29a4.89,4.89,0,0,0-.71-.3M30,25.85l-.49-.14a8.75,8.75,0,0,1-1.23-.53,3.74,3.74,0,0,1-1.05-.71,3.28,3.28,0,0,1-.75-1,3,3,0,0,1-.26-1.31A3.09,3.09,0,0,1,27.13,20a3.42,3.42,0,0,1,1.19-.75A5.36,5.36,0,0,1,30,18.83l.44,0ZM30,19.2h0a6.12,6.12,0,0,0-1.57.38,3.17,3.17,0,0,0-1,.67,3.25,3.25,0,0,0-.63.93,2.67,2.67,0,0,0-.19,1.09,2.79,2.79,0,0,0,.23,1.16,3.07,3.07,0,0,0,.63.86,4.17,4.17,0,0,0,.94.63,8.19,8.19,0,0,0,1.19.49h0Zm-.45,6.09-.22-.07a4.69,4.69,0,0,1-.9-.41,3.56,3.56,0,0,1-.93-.64,2.68,2.68,0,0,1-.64-.82,2.6,2.6,0,0,1-.22-1.12,3.35,3.35,0,0,1,.18-1.05,3,3,0,0,1,.6-.89,3.51,3.51,0,0,1,1.05-.67,5.32,5.32,0,0,1,1.27-.34l.22,0Zm0-5.64a6.51,6.51,0,0,0-.93.26,3,3,0,0,0-.94.6,2.31,2.31,0,0,0-.52.79,2.57,2.57,0,0,0-.19.93,2.54,2.54,0,0,0,.19,1,1.72,1.72,0,0,0,.56.71,3.19,3.19,0,0,0,.86.56c.19.11.41.19.64.3Z"/></svg>