<svg xmlns="http://www.w3.org/2000/svg" viewBox="0 0 59.72 47.77"><defs><style>.a{fill:#555353;}</style></defs><path class="a" d="M56.61,16.64a2,2,0,0,0-.27.44A32.17,32.17,0,0,1,40.61,31.29C24.09,23.1,24,12.54,24,12.54c-.59-4.94,2.17-9.38,7.83-9.2A9,9,0,0,1,38.3,6.71l1.47,1.63a1.12,1.12,0,0,0,1.4,0L42.68,7c2.47-2.47,5.39-4,7.59-3.88a7.36,7.36,0,0,1,6.91,5.15,1.29,1.29,0,0,0,1.72.83,0,0,0,0,0,0,0c.9-.67,1-1.52.44-2.88A9.68,9.68,0,0,0,51.64.08,12.11,12.11,0,0,0,40.71,5l-.06,0h-.12c-.06,0-.11,0-.11,0A11.75,11.75,0,0,0,31.23.2a10.68,10.68,0,0,0-3.5.56,10.26,10.26,0,0,0-6.8,10c0,12.74,11.45,20.05,18.24,23.28a3.49,3.49,0,0,0,2.83,0c7.6-3.62,13.6-9.06,16.49-15,.62-1.24.55-2.18-.36-2.74a1.34,1.34,0,0,0-1.52.27"/><path class="a" d="M35.67,30.06a1.72,1.72,0,0,0-.28.44A32.17,32.17,0,0,1,19.66,44.71C3.15,36.52,3,26,3,26c-.6-4.95,2.16-9.38,7.83-9.2a9,9,0,0,1,6.49,3.37l1.46,1.63a1.13,1.13,0,0,0,1.41,0l1.5-1.39c2.47-2.48,5.39-4,7.6-3.88a7.36,7.36,0,0,1,6.9,5.15,1.29,1.29,0,0,0,1.73.82h0c.9-.68,1-1.52.45-2.89a9.69,9.69,0,0,0-7.74-6.06,12.12,12.12,0,0,0-10.93,4.88l-.06.05h-.11c-.05,0-.11,0-.11-.05A11.72,11.72,0,0,0,10.3,13.6a10.75,10.75,0,0,0-3.51.57A10.25,10.25,0,0,0,0,24.19C0,36.94,11.45,44.24,18.24,47.47a3.49,3.49,0,0,0,2.83,0c7.59-3.61,13.6-9,16.49-14.95.62-1.24.55-2.18-.36-2.75a1.39,1.39,0,0,0-1.53.29"/></svg>