<svg xmlns="http://www.w3.org/2000/svg" viewBox="0 0 60.57 60.43"><defs><style>.a{fill:#555353;}</style></defs><path class="a" d="M58.14,46.31a1.85,1.85,0,0,0-.21.33A24,24,0,0,1,46.24,57.2C34,51.12,33.89,43.26,33.89,43.26c-.44-3.67,1.6-7,5.81-6.84a6.64,6.64,0,0,1,4.82,2.5l1.08,1.21a.86.86,0,0,0,1,0l1.11-1c1.84-1.83,4-3,5.65-2.88A5.47,5.47,0,0,1,58.54,40a1,1,0,0,0,1.28.62s0,0,0,0c.66-.51.75-1.14.32-2.14A7.19,7.19,0,0,0,54.43,34a9,9,0,0,0-8.12,3.62l0,0h-.08s-.09,0-.09,0a8.74,8.74,0,0,0-6.82-3.54,8,8,0,0,0-2.61.43,7.62,7.62,0,0,0-5,7.45c0,9.47,8.5,14.9,13.55,17.3a2.56,2.56,0,0,0,2.1,0c5.64-2.69,10.11-6.74,12.25-11.1.47-.93.42-1.62-.27-2a1,1,0,0,0-1.12.21"/><path class="a" d="M46.23,59.62a2.88,2.88,0,0,1-1.11-.24C40,57,31.49,51.47,31.49,42a7.73,7.73,0,0,1,5.14-7.58,8,8,0,0,1,2.65-.44,8.82,8.82,0,0,1,6.92,3.58h0a9.13,9.13,0,0,1,8.23-3.66,7.36,7.36,0,0,1,5.86,4.59c.46,1.08.34,1.76-.37,2.31l0,0,0,0a1.09,1.09,0,0,1-1.45-.71,5.32,5.32,0,0,0-5-3.74c-1.55-.12-3.67,1-5.53,2.84l-1.13,1.05a1,1,0,0,1-1.22,0h0L44.44,39a6.6,6.6,0,0,0-4.72-2.46,5.34,5.34,0,0,0-4.28,1.64,6.26,6.26,0,0,0-1.39,5v0a10.78,10.78,0,0,0,1.56,4.64c2.54,4.44,7.18,7.43,10.65,9.16A24.08,24.08,0,0,0,57.81,46.58a.3.3,0,0,0,.06-.11,1.67,1.67,0,0,1,.17-.26,1.12,1.12,0,0,1,1.08-.3v0l.22.14c.73.45.83,1.21.32,2.23C57.5,52.62,53,56.7,47.34,59.39a3.06,3.06,0,0,1-1.11.23m-6.95-25.4a7.67,7.67,0,0,0-2.56.41A7.45,7.45,0,0,0,31.77,42c0,9.37,8.44,14.78,13.46,17.17a2.46,2.46,0,0,0,2,0c5.6-2.67,10.05-6.69,12.19-11,.44-.88.38-1.48-.2-1.85h0a.84.84,0,0,0-.95.19.69.69,0,0,0-.13.2.6.6,0,0,1-.06.11A24.41,24.41,0,0,1,46.3,57.36h-.06l-.05,0C42.67,55.6,37.94,52.57,35.35,48a10.76,10.76,0,0,1-1.59-4.75A6.56,6.56,0,0,1,35.23,38a5.64,5.64,0,0,1,4.49-1.72,6.84,6.84,0,0,1,4.92,2.54L45.7,40a.7.7,0,0,0,.87,0l1.11-1c1.92-1.92,4.12-3,5.76-2.93A5.58,5.58,0,0,1,58.69,40a.87.87,0,0,0,.45.51.75.75,0,0,0,.64,0h0c.6-.47.67-1,.27-2a7.1,7.1,0,0,0-5.63-4.43,8.86,8.86,0,0,0-8,3.57v0l-.09.08H46.2c-.14,0-.2-.07-.21-.13a8.61,8.61,0,0,0-6.71-3.46"/><path class="a" d="M25.09,60.43H4a4,4,0,0,1-4-4V35.35a4,4,0,0,1,4-4h21.1a4,4,0,0,1,4,4v21.1a4,4,0,0,1-4,4M4,33.72a1.63,1.63,0,0,0-1.63,1.63v21.1A1.63,1.63,0,0,0,4,58.08h21.1a1.62,1.62,0,0,0,1.63-1.63V35.35a1.63,1.63,0,0,0-1.63-1.63Z"/><path class="a" d="M25.09,29.08H4a4,4,0,0,1-4-4V4A4,4,0,0,1,4,0h21.1a4,4,0,0,1,4,4V5a1.18,1.18,0,0,1-2.36,0V4a1.63,1.63,0,0,0-1.63-1.63H4A1.64,1.64,0,0,0,2.36,4v21.1A1.64,1.64,0,0,0,4,26.73h21.1a1.63,1.63,0,0,0,1.63-1.64V14.59a1.18,1.18,0,1,1,2.36,0v10.5a4,4,0,0,1-4,4"/><path class="a" d="M27.9,10.79a.83.83,0,0,1-.22,0,1,1,0,0,1-.23-.07l-.2-.11-.18-.15a.9.9,0,0,1-.15-.18,2,2,0,0,1-.11-.2.78.78,0,0,1-.07-.23.83.83,0,0,1,0-.22.85.85,0,0,1,0-.23,1,1,0,0,1,.07-.23,1.28,1.28,0,0,1,.11-.2,1.29,1.29,0,0,1,.33-.33l.2-.11a.78.78,0,0,1,.23-.07,1.14,1.14,0,0,1,.45,0,1.44,1.44,0,0,1,.23.07l.2.11a1.29,1.29,0,0,1,.33.33,1.28,1.28,0,0,1,.11.2.78.78,0,0,1,.07.23,1.6,1.6,0,0,1,0,.23.56.56,0,0,1,0,.22,1.19,1.19,0,0,1-.07.23,1.28,1.28,0,0,1-.11.2,1.43,1.43,0,0,1-.15.18.9.9,0,0,1-.18.15l-.2.11a.78.78,0,0,1-.23.07.85.85,0,0,1-.23,0"/><path class="a" d="M56.45,29.08H35.35a4,4,0,0,1-4-4V4a4,4,0,0,1,4-4h21.1a4,4,0,0,1,4,4v21.1a4,4,0,0,1-4,4M35.35,2.37A1.64,1.64,0,0,0,33.72,4V25.1a1.63,1.63,0,0,0,1.63,1.64h21.1a1.64,1.64,0,0,0,1.63-1.64V4a1.63,1.63,0,0,0-1.63-1.63Z"/><path class="a" d="M7.21,14.54h0A1.5,1.5,0,0,1,8.71,13H20.17a1.51,1.51,0,1,1,0,3H8.71a1.51,1.51,0,0,1-1.5-1.51"/><path class="a" d="M38.71,14.54h0A1.5,1.5,0,0,1,40.22,13H51.67a1.51,1.51,0,1,1,0,3H40.22a1.51,1.51,0,0,1-1.51-1.51"/><path class="a" d="M14.44,7.29h0A1.52,1.52,0,0,1,16,8.8V20.27a1.51,1.51,0,1,1-3,0V8.81a1.52,1.52,0,0,1,1.5-1.52"/><path class="a" d="M9.43,41.21h0a1.52,1.52,0,0,1,2.13,0l8.1,8.1a1.51,1.51,0,0,1-2.13,2.14l-8.1-8.11a1.5,1.5,0,0,1,0-2.13"/><path class="a" d="M19.53,41.08h0a1.53,1.53,0,0,1,0,2.14l-8.1,8.1a1.52,1.52,0,0,1-2.13,0,1.5,1.5,0,0,1,0-2.13l8.1-8.11a1.5,1.5,0,0,1,2.13,0"/></svg>