<svg xmlns="http://www.w3.org/2000/svg" viewBox="0 0 62.43 62.43"><defs><style>.a{fill:#555353;}</style></defs><path class="a" d="M29.18,45.45a13.3,13.3,0,0,1-4.4-1.18,11.87,11.87,0,0,1-3.41-2.43l1.06-1.61a.94.94,0,0,1,.39-.35,1.3,1.3,0,0,1,.55-.16,1.35,1.35,0,0,1,.86.4c.32.23.71.55,1.18.86a15.15,15.15,0,0,0,1.65.94,7.53,7.53,0,0,0,2.31.63L30.12,32c-.94-.28-1.85-.59-2.75-.94A10.14,10.14,0,0,1,25,29.69a5.7,5.7,0,0,1-1.69-2.12,7.17,7.17,0,0,1-.62-3.22,7.53,7.53,0,0,1,.55-2.82,8.51,8.51,0,0,1,1.64-2.47,8.76,8.76,0,0,1,2.67-1.77,8.91,8.91,0,0,1,3.65-.66l.19-2.91a1.14,1.14,0,0,1,.32-.66.84.84,0,0,1,.7-.32h1.3l-.28,3.93a10,10,0,0,1,3.61,1,12.65,12.65,0,0,1,2.71,2L38.86,21a1.1,1.1,0,0,1-.9.59,1.25,1.25,0,0,1-.67-.24c-.27-.15-.58-.35-1-.59A13.75,13.75,0,0,0,35,20.08a5.48,5.48,0,0,0-1.73-.47l-.66,9.6c.94.28,1.88.63,2.82.95a10,10,0,0,1,2.51,1.33,6.47,6.47,0,0,1,1.81,2,6.08,6.08,0,0,1,.66,3.06A9.52,9.52,0,0,1,39.8,40a8.48,8.48,0,0,1-1.72,2.78,8.38,8.38,0,0,1-2.79,1.93,8.8,8.8,0,0,1-3.76.74L31.29,49a1.18,1.18,0,0,1-.31.67.88.88,0,0,1-.67.27H29ZM26,24a3.71,3.71,0,0,0,.35,1.65,4.28,4.28,0,0,0,.94,1.25,7.28,7.28,0,0,0,1.38.94,10,10,0,0,0,1.72.71l.59-8.94a7,7,0,0,0-2.23.51,4.8,4.8,0,0,0-1.53,1,3.76,3.76,0,0,0-.91,1.33A4.43,4.43,0,0,0,26,24M37,37.14a3.77,3.77,0,0,0-.35-1.69,3.53,3.53,0,0,0-1-1.22,7.09,7.09,0,0,0-1.49-.9c-.59-.23-1.18-.47-1.85-.7l-.66,9.88A7.87,7.87,0,0,0,33.88,42a5.71,5.71,0,0,0,1.69-1.14,4.73,4.73,0,0,0,1-1.61A5.33,5.33,0,0,0,37,37.14"/><path class="a" d="M30.31,50.12H28.82L29,45.61a12.75,12.75,0,0,1-4.27-1.18A12.17,12.17,0,0,1,21.25,42l-.11-.12,1.13-1.72a1.18,1.18,0,0,1,.47-.43,1.47,1.47,0,0,1,.63-.2,1.56,1.56,0,0,1,1,.43l.24.16c.27.19.59.43.94.66s1,.63,1.61.95a6.51,6.51,0,0,0,2,.58l.7-10.19c-.86-.24-1.72-.55-2.63-.9a9.88,9.88,0,0,1-2.43-1.42,5.15,5.15,0,0,1-1.72-2.19,7.41,7.41,0,0,1-.63-3.3,8.51,8.51,0,0,1,.55-2.9,9,9,0,0,1,1.69-2.55A8.78,8.78,0,0,1,31,16.35l.2-2.7a1.39,1.39,0,0,1,.35-.79,1.32,1.32,0,0,1,.86-.31h1.49l-.27,4a9.41,9.41,0,0,1,3.49,1.06,13.36,13.36,0,0,1,2.74,2l.12.12L39,21.1a1.39,1.39,0,0,1-1.06.66,1.31,1.31,0,0,1-.78-.27,6.34,6.34,0,0,1-.59-.35l-.39-.24c-.36-.23-.79-.39-1.22-.63l-.08,0a6.55,6.55,0,0,0-1.45-.43l-.67,9.3c.59.15,1.18.39,1.73.59.31.11.63.23.94.31A9.85,9.85,0,0,1,38,31.37a6.53,6.53,0,0,1,1.84,2.12,6.19,6.19,0,0,1,.71,3.14A10.21,10.21,0,0,1,40,40.08a8.8,8.8,0,0,1-8.27,5.57L31.45,49a1.43,1.43,0,0,1-.35.78,1,1,0,0,1-.79.32m-1.09-.4h1.09a.52.52,0,0,0,.51-.23.81.81,0,0,0,.28-.55l.23-3.73h.2a8.66,8.66,0,0,0,6.39-2.62,8.11,8.11,0,0,0,1.69-2.71,9.31,9.31,0,0,0,.59-3.29,5.47,5.47,0,0,0-2.4-4.94,10.28,10.28,0,0,0-2.47-1.3c-.31-.12-.62-.19-.94-.31-.63-.2-1.25-.43-1.88-.63l-.16,0,.71-10,.19,0a7.08,7.08,0,0,1,1.81.47l.08,0a12.06,12.06,0,0,1,1.25.63l.39.23a6.11,6.11,0,0,1,.59.36.92.92,0,0,0,.59.19.94.94,0,0,0,.75-.51l.78-1.14a11.64,11.64,0,0,0-2.55-1.8,9.61,9.61,0,0,0-3.53-1l-.23,0L33.45,13H32.39a.69.69,0,0,0-.55.23,1,1,0,0,0-.27.59l-.2,3.06h-.19a8.16,8.16,0,0,0-3.57.67A8.66,8.66,0,0,0,25,19.25a8.72,8.72,0,0,0-1.61,2.4,7.65,7.65,0,0,0-.55,2.74,7.27,7.27,0,0,0,.59,3.14,4.86,4.86,0,0,0,1.65,2,8.64,8.64,0,0,0,2.35,1.33c.94.35,1.84.67,2.75.94l.15,0-.78,10.9-.2,0A8.35,8.35,0,0,1,27,42.12c-.63-.32-1.18-.63-1.69-.94-.35-.24-.66-.48-.94-.71l-.23-.16a1.31,1.31,0,0,0-.75-.35,1.34,1.34,0,0,0-.47.12c-.16.08-.27.15-.31.27l-1,1.49a12.07,12.07,0,0,0,3.25,2.28,13.09,13.09,0,0,0,4.32,1.17h.19Zm2.15-7,.71-10.35.23.08c.67.23,1.26.47,1.85.71a7.16,7.16,0,0,1,1.57.94,3.33,3.33,0,0,1,1.05,1.29,4.12,4.12,0,0,1,.4,1.77,5.42,5.42,0,0,1-.4,2.15A5.5,5.5,0,0,1,35.73,41,6.66,6.66,0,0,1,34,42.2a6.79,6.79,0,0,1-2.35.54Zm1.06-9.84-.63,9.37a6.33,6.33,0,0,0,2-.51,5.42,5.42,0,0,0,1.61-1.09,5,5,0,0,0,1-1.53,4.73,4.73,0,0,0,.39-2,4,4,0,0,0-.31-1.61,3.12,3.12,0,0,0-.94-1.14,9.17,9.17,0,0,0-1.45-.9c-.55-.16-1.1-.39-1.65-.59m-1.92-4.12-.24-.08a9.22,9.22,0,0,1-1.76-.7,7.92,7.92,0,0,1-1.41-1,4,4,0,0,1-1-1.3A4,4,0,0,1,25.73,24,5,5,0,0,1,26,22.35,4.35,4.35,0,0,1,27,20.94a5.07,5.07,0,0,1,1.61-1,7.39,7.39,0,0,1,2.31-.51l.24,0Zm.2-9a6.78,6.78,0,0,0-2,.47,5,5,0,0,0-1.45.94,4.49,4.49,0,0,0-.86,1.26A4.32,4.32,0,0,0,26.12,24a3.79,3.79,0,0,0,.31,1.57,4.77,4.77,0,0,0,.9,1.21,7.46,7.46,0,0,0,1.34.91,9.87,9.87,0,0,0,1.45.62Z"/><path class="a" d="M57.65,24.08a27,27,0,0,1,.94,7.13,27.45,27.45,0,1,1-4.32-14.74,2,2,0,0,0,2.79,1.06,2.06,2.06,0,0,0,.67-2.79A31.09,31.09,0,1,0,61.33,23a1.92,1.92,0,0,0-3.68,1.1"/><path class="a" d="M30.2,50.23H28.55l.31-4.51a11.83,11.83,0,0,1-4.19-1.17A12.55,12.55,0,0,1,21.18,42L21,41.88,22.2,40a1.12,1.12,0,0,1,.51-.47,1.46,1.46,0,0,1,1.72.27c.31.24.71.55,1.14.86a8.3,8.3,0,0,0,3.49,1.46l.7-10c-.86-.27-1.68-.54-2.51-.86a9,9,0,0,1-2.47-1.41A6.84,6.84,0,0,1,23,27.69a7.82,7.82,0,0,1-.67-3.34,7.6,7.6,0,0,1,.59-2.94,7.9,7.9,0,0,1,1.73-2.55,9,9,0,0,1,2.74-1.8,9.76,9.76,0,0,1,3.49-.71l.2-2.63a1.77,1.77,0,0,1,.35-.86,1.18,1.18,0,0,1,.94-.39H34l-.27,3.88a11,11,0,0,1,3.41,1.06,11.78,11.78,0,0,1,2.74,2l.2.16-1,1.53a1.44,1.44,0,0,1-1.18.74,1.85,1.85,0,0,1-.86-.27l-1-.59c-.39-.2-.83-.43-1.3-.63A5.8,5.8,0,0,0,33.45,20l-.63,9c.87.27,1.77.59,2.59.9A11.42,11.42,0,0,1,38,31.25a6.33,6.33,0,0,1,1.88,2.16,6.61,6.61,0,0,1,.71,3.22A9.55,9.55,0,0,1,40,40.12,8.12,8.12,0,0,1,38.16,43a9.24,9.24,0,0,1-2.91,2,9.51,9.51,0,0,1-3.6.78L31.41,49a1.48,1.48,0,0,1-.39.86,1,1,0,0,1-.82.35m-1-.58h1a.66.66,0,0,0,.47-.2A1.46,1.46,0,0,0,30.9,49l.28-3.84h.27a8.94,8.94,0,0,0,3.65-.71,8.33,8.33,0,0,0,2.7-1.88,7.5,7.5,0,0,0,1.69-2.67,9.09,9.09,0,0,0,.59-3.25,6.3,6.3,0,0,0-.63-2.91,6.46,6.46,0,0,0-1.72-2,10.84,10.84,0,0,0-2.44-1.29c-.9-.35-1.84-.67-2.78-.94l-.24-.08L33,19.29l.31,0a8,8,0,0,1,1.81.47,14.67,14.67,0,0,1,1.37.67l1,.59a1.26,1.26,0,0,0,.51.19.82.82,0,0,0,.67-.47l.7-1.09A10.68,10.68,0,0,0,36.9,18a10.21,10.21,0,0,0-3.49-1l-.27,0L33.41,13h-1a.67.67,0,0,0-.47.19,1.12,1.12,0,0,0-.23.51l-.24,3.18h-.27a9,9,0,0,0-3.53.67,8.71,8.71,0,0,0-2.59,1.68,6.6,6.6,0,0,0-1.57,2.36,7.28,7.28,0,0,0-.55,2.7,6.43,6.43,0,0,0,.63,3.06,5.89,5.89,0,0,0,1.61,2,8.72,8.72,0,0,0,2.31,1.33c.86.36,1.8.67,2.7,1l.24.07-.78,11.1-.32,0A7.78,7.78,0,0,1,27,42.19a8.86,8.86,0,0,1-1.69-1c-.47-.31-.86-.62-1.17-.86a1.3,1.3,0,0,0-.67-.31.74.74,0,0,0-.39.12.75.75,0,0,0-.28.23l-.9,1.41A11,11,0,0,0,25,44a11.47,11.47,0,0,0,4.27,1.14l.32,0Zm2.07-6.83L32,32.19l.39.12a15.4,15.4,0,0,1,1.84.71,8.59,8.59,0,0,1,1.57.94,3.93,3.93,0,0,1,1.1,1.33,3.83,3.83,0,0,1,.39,1.85A6.22,6.22,0,0,1,37,39.29,5.06,5.06,0,0,1,35.88,41a6.39,6.39,0,0,1-1.76,1.21,7.29,7.29,0,0,1-2.39.59Zm1.3-9.8L32,42.12a6.91,6.91,0,0,0,1.84-.51,5.3,5.3,0,0,0,1.61-1.06,4.59,4.59,0,0,0,1-1.49,5,5,0,0,0,.32-1.92,3.18,3.18,0,0,0-1.26-2.71A6,6,0,0,0,34,33.57c-.47-.16-1-.36-1.45-.55m-2-4.08-.4-.12a12.06,12.06,0,0,1-1.76-.74,5.68,5.68,0,0,1-1.45-1,4.91,4.91,0,0,1-1-1.34,4.13,4.13,0,0,1-.35-1.8A4.86,4.86,0,0,1,26,22.27a4,4,0,0,1,1-1.45,5,5,0,0,1,1.65-1.06,8.16,8.16,0,0,1,2.31-.55l.35,0Zm0-9a5.71,5.71,0,0,0-1.77.47,4.28,4.28,0,0,0-1.45.94,3.55,3.55,0,0,0-.82,1.22,3.85,3.85,0,0,0,0,3,3.54,3.54,0,0,0,.86,1.14,6.88,6.88,0,0,0,1.33.9c.4.19.87.39,1.3.55Z"/><path class="a" d="M30.2,50.43H28.35l.32-4.55a11.65,11.65,0,0,1-4.08-1.17,12.87,12.87,0,0,1-3.53-2.55l-.28-.28,1.26-2a1.63,1.63,0,0,1,.59-.55,1.65,1.65,0,0,1,1.92.32c.12.07.23.19.39.27s.47.39.75.59a7.44,7.44,0,0,0,1.56.86,7.54,7.54,0,0,0,1.61.51l.67-9.61c-1-.31-1.69-.55-2.39-.82A8.45,8.45,0,0,1,24.63,30a6.35,6.35,0,0,1-1.85-2.32,7.66,7.66,0,0,1-.7-3.41,7.85,7.85,0,0,1,.59-3,8.12,8.12,0,0,1,1.76-2.62,9.12,9.12,0,0,1,6.2-2.55l.19-2.47a2,2,0,0,1,.4-1,1.33,1.33,0,0,1,1.09-.47h1.85l-.28,3.92a10,10,0,0,1,3.3,1.06,10.59,10.59,0,0,1,2.78,2l.31.23-1.05,1.69a1.6,1.6,0,0,1-1.34.82,1.7,1.7,0,0,1-.94-.31,6.11,6.11,0,0,0-.59-.36L36,21.06l-.27-.16-1-.47a6.93,6.93,0,0,0-1.06-.35l-.59,8.66c.82.28,1.69.55,2.47.87A12.18,12.18,0,0,1,38.16,31a6.46,6.46,0,0,1,2,2.23,6.63,6.63,0,0,1,.74,3.3,9.67,9.67,0,0,1-.62,3.57,8.56,8.56,0,0,1-1.85,2.94,9.11,9.11,0,0,1-3,2,9.28,9.28,0,0,1-3.49.78L31.69,49a1.62,1.62,0,0,1-.44,1,1.33,1.33,0,0,1-1.05.47M28.75,50H30.2a.79.79,0,0,0,.66-.28,1.22,1.22,0,0,0,.36-.78l.23-3.41h.2a9.36,9.36,0,0,0,3.53-.79,8.87,8.87,0,0,0,2.82-2A7.56,7.56,0,0,0,39.76,40a9.61,9.61,0,0,0,.63-3.41,6.88,6.88,0,0,0-.66-3.14,6.35,6.35,0,0,0-1.81-2.08,11.08,11.08,0,0,0-2.55-1.33c-.82-.32-1.72-.63-2.59-.9l-.15,0,.66-9.38.2,0a6.15,6.15,0,0,1,1.37.4c.36.15.71.31,1,.47l.28.15.39.24c.23.12.39.23.59.35a1.72,1.72,0,0,0,.78.24,1.29,1.29,0,0,0,1-.67l.9-1.37,0,0a10.66,10.66,0,0,0-2.7-2,9.56,9.56,0,0,0-3.34-1l-.19,0,.27-3.84H32.39a1,1,0,0,0-.78.31,1.6,1.6,0,0,0-.32.74l-.19,2.79h-.2a9,9,0,0,0-3.41.71A8.32,8.32,0,0,0,24.82,19a7.91,7.91,0,0,0-1.68,2.47,7.21,7.21,0,0,0-.59,2.86,7.4,7.4,0,0,0,.67,3.26A6.29,6.29,0,0,0,25,29.76a8.22,8.22,0,0,0,2.43,1.38c.71.27,1.45.51,2.51.86l.16,0-.75,10.31-.19,0a8.9,8.9,0,0,1-1.92-.55,7.66,7.66,0,0,1-1.65-.94c-.28-.19-.55-.39-.79-.59a2.48,2.48,0,0,0-.39-.27,1.36,1.36,0,0,0-1.53-.27,1,1,0,0,0-.43.39l-1.1,1.72,0,0a12.52,12.52,0,0,0,7.57,3.65h.2Zm1.45-.2H29l.39-4.51h-.12a12.15,12.15,0,0,1-4.35-1.13A10.72,10.72,0,0,1,21.76,42l-.11-.12,1-1.53c0-.11.19-.19.31-.27a1.09,1.09,0,0,1,.51-.16,1.46,1.46,0,0,1,.79.35l.23.2.94.67a13.08,13.08,0,0,0,1.65,1,8.43,8.43,0,0,0,2.31.63h.12L30.24,32l-.08,0A26.86,26.86,0,0,1,27.45,31a8.41,8.41,0,0,1-2.35-1.37,5.73,5.73,0,0,1-1.65-2.12,6.56,6.56,0,0,1-.63-3.14,7.86,7.86,0,0,1,.55-2.78A7,7,0,0,1,25,19.14a8.56,8.56,0,0,1,6.24-2.39h.07l.24-3a1.33,1.33,0,0,1,.27-.62.85.85,0,0,1,.63-.28h1.18l-.28,3.92h.08A10.27,10.27,0,0,1,37,17.84a9.94,9.94,0,0,1,2.47,1.77l.12.11-.79,1.22a1,1,0,0,1-.82.55,1.2,1.2,0,0,1-.59-.23l-.59-.36-.39-.23a5.39,5.39,0,0,0-1-.51L35,20a8.7,8.7,0,0,0-1.73-.47h-.11l-.67,9.8.08,0a27.41,27.41,0,0,1,2.78.94,10.72,10.72,0,0,1,2.47,1.34,6,6,0,0,1,1.77,2,6.42,6.42,0,0,1,.66,3A9.52,9.52,0,0,1,39.69,40,7.78,7.78,0,0,1,38,42.74a8.59,8.59,0,0,1-2.74,1.93,9.33,9.33,0,0,1-3.73.7h-.08L31.14,49a2,2,0,0,1-.28.59,1.17,1.17,0,0,1-.66.23m-.79-.39h.79a.36.36,0,0,0,.31-.16,1.11,1.11,0,0,0,.2-.39l.27-4h.47A8.55,8.55,0,0,0,35,44.2a8.06,8.06,0,0,0,2.63-1.85,7.31,7.31,0,0,0,1.64-2.59,8.42,8.42,0,0,0,.59-3.17,6.19,6.19,0,0,0-.59-2.83,5.93,5.93,0,0,0-1.68-1.88,11.41,11.41,0,0,0-2.39-1.25,24,24,0,0,0-2.79-.94L32,29.57l.74-10.47.51.08a9,9,0,0,1,1.85.47l.35.15c.39.16.75.36,1.06.51l.39.24c.24.12.39.23.59.35a.83.83,0,0,0,.43.16c.16,0,.35-.12.51-.39l.63-1a10,10,0,0,0-2.28-1.57,9.13,9.13,0,0,0-3.41-1l-.47-.08.28-3.84h-.79a.36.36,0,0,0-.31.15,1.31,1.31,0,0,0-.2.39l-.23,3.34h-.47a8.93,8.93,0,0,0-3.46.66,8.55,8.55,0,0,0-2.54,1.65,6.72,6.72,0,0,0-1.53,2.28,6.84,6.84,0,0,0-.55,2.62,6.26,6.26,0,0,0,.59,3,5.37,5.37,0,0,0,1.56,2,8.12,8.12,0,0,0,2.28,1.3,26.59,26.59,0,0,0,2.7.94l.4.12L29.84,43.1,29.33,43a9.34,9.34,0,0,1-2.47-.63,8.78,8.78,0,0,1-1.72-1,8.51,8.51,0,0,1-.94-.7L24,40.51a1.14,1.14,0,0,0-.55-.28.7.7,0,0,0-.27.08c-.08,0-.2.12-.2.16l-.82,1.29a10.13,10.13,0,0,0,3,2,11.21,11.21,0,0,0,4.19,1.14l.51.08ZM31.29,43H31.1l.78-11.1.63.2a14.79,14.79,0,0,1,1.76.66l.08,0a8.76,8.76,0,0,1,1.61,1,3.91,3.91,0,0,1,1.14,1.42,4.1,4.1,0,0,1,.43,1.92,7.13,7.13,0,0,1-.35,2.23A5.84,5.84,0,0,1,36,41.18a6.35,6.35,0,0,1-1.84,1.25,8.06,8.06,0,0,1-2.47.59Zm.2-.39h.24A7.33,7.33,0,0,0,34,42a6.15,6.15,0,0,0,1.69-1.18,4.81,4.81,0,0,0,1.05-1.64,6,6,0,0,0,.36-2.08,3.87,3.87,0,0,0-.36-1.77,3.3,3.3,0,0,0-1.05-1.25,7.15,7.15,0,0,0-1.53-.9l-.08,0a14.22,14.22,0,0,0-1.73-.67l-.15,0Zm.24-.28.66-9.61.24.12,1.45.55a7.88,7.88,0,0,1,1.49.9,3.5,3.5,0,0,1,1,1.22,4,4,0,0,1,.35,1.65,6.13,6.13,0,0,1-.31,2,5.08,5.08,0,0,1-1,1.56,4.63,4.63,0,0,1-1.69,1.1,5.75,5.75,0,0,1-1.88.51Zm1-9.06-.59,8.59a6.33,6.33,0,0,0,1.57-.47,4.93,4.93,0,0,0,1.52-1,4.38,4.38,0,0,0,1-1.41,5.16,5.16,0,0,0,.31-1.84,3.14,3.14,0,0,0-.31-1.49,2.93,2.93,0,0,0-.91-1.06,6.27,6.27,0,0,0-1.37-.83c-.31-.11-.74-.27-1.17-.47m-2-4.07-.62-.2a13,13,0,0,1-1.81-.75,5.16,5.16,0,0,1-1.49-1,5.44,5.44,0,0,1-1.06-1.37A4.81,4.81,0,0,1,25.41,24a5.93,5.93,0,0,1,.32-1.77,4.23,4.23,0,0,1,1-1.52,4.77,4.77,0,0,1,1.72-1.1,7.55,7.55,0,0,1,2.35-.55l.59-.08ZM31,19.41H30.9a8.21,8.21,0,0,0-2.27.55,4.45,4.45,0,0,0-1.57,1,3.51,3.51,0,0,0-.94,1.37A5,5,0,0,0,25.8,24a3.93,3.93,0,0,0,.36,1.73,4.39,4.39,0,0,0,1,1.25,5.07,5.07,0,0,0,1.41.94,14.55,14.55,0,0,0,1.72.75l.16,0Zm-.75,9L30,28.31a9,9,0,0,1-1.33-.55,5.44,5.44,0,0,1-1.38-.94,3.82,3.82,0,0,1-.9-1.21A3.65,3.65,0,0,1,26.12,24a4,4,0,0,1,.27-1.53,4.21,4.21,0,0,1,.86-1.29,4.07,4.07,0,0,1,1.53-1,5.42,5.42,0,0,1,1.81-.48l.23,0Zm.12-8.23a4,4,0,0,0-1.45.43,4.26,4.26,0,0,0-1.41.9,3.75,3.75,0,0,0-.78,1.14A3.11,3.11,0,0,0,26.47,24a3.66,3.66,0,0,0,.31,1.45,3,3,0,0,0,.83,1.06,5.56,5.56,0,0,0,1.29.86,7.09,7.09,0,0,0,1,.43Z"/></svg>