<svg xmlns="http://www.w3.org/2000/svg" viewBox="0 0 63.02 61.3"><defs><style>.a{fill:#555353;}</style></defs><path class="a" d="M48,26.87a.94.94,0,0,0-1.2.58l-2,5.74a.94.94,0,0,0,1.78.62l2-5.74a.9.9,0,0,0-.57-1.2"/><path class="a" d="M45.63,34.81a2,2,0,0,1-.42-.07,1.39,1.39,0,0,1-.85-1.7l2-5.75a1.29,1.29,0,0,1,1.69-.8,1.2,1.2,0,0,1,.77.69,1.25,1.25,0,0,1,.08,1l-2,5.75a1.34,1.34,0,0,1-1.28.88m2-7.63a.57.57,0,0,0-.54.38l-2,5.75a.56.56,0,0,0,.35.69.56.56,0,0,0,.73-.34l2-5.75a.56.56,0,0,0-.35-.69,1.49,1.49,0,0,1-.19,0"/><path class="a" d="M29.9,28.88l2,5.74A.94.94,0,1,0,33.64,34l-1.93-5.59a.89.89,0,0,0-1.19-.57.79.79,0,0,0-.62,1"/><path class="a" d="M32.79,35.66a1.37,1.37,0,0,1-1.27-.89l-2-5.74a1.23,1.23,0,0,1,0-.89,1.28,1.28,0,0,1,.81-.65,1.33,1.33,0,0,1,1.7.81l2,5.59a1.28,1.28,0,0,1-.07,1,1.37,1.37,0,0,1-.77.69,2,2,0,0,1-.43.08m-2.54-6.9,2,5.74a.56.56,0,0,0,.74.35.45.45,0,0,0,.31-.27.54.54,0,0,0,0-.42l-2-5.63a.56.56,0,0,0-.73-.35c-.16.08-.31.16-.35.27a.41.41,0,0,0,0,.31"/><path class="a" d="M60.36,37.09a1,1,0,0,0-1.27-.43l-5.48,2.66a1,1,0,0,0-.42,1.28.91.91,0,0,0,.54.46.93.93,0,0,0,.73,0l5.48-2.66a1,1,0,0,0,.42-1.27"/><path class="a" d="M54,41.48a1.76,1.76,0,0,1-.43-.07,1.36,1.36,0,0,1-.77-.66,1.29,1.29,0,0,1-.07-1,1.2,1.2,0,0,1,.69-.77l5.47-2.66a1.35,1.35,0,0,1,1.78.61,1.32,1.32,0,0,1,.07,1,1.25,1.25,0,0,1-.69.77l-5.47,2.66a1.75,1.75,0,0,1-.58.11m5.47-4.55a.49.49,0,0,0-.23,0l-5.47,2.66a.54.54,0,0,0-.23.74.47.47,0,0,0,.3.26.57.57,0,0,0,.43,0l5.47-2.66A.54.54,0,0,0,60,37.2a.6.6,0,0,0-.5-.27"/><path class="a" d="M62.64,52.63a.94.94,0,0,0-.7-1.12l-5.55-1.27a.88.88,0,0,0-1,.73,1,1,0,0,0,.11.69,1,1,0,0,0,.54.43l5.56,1.27a.88.88,0,0,0,1.08-.73"/><path class="a" d="M61.79,53.74a.8.8,0,0,1-.27,0L56,52.43a1.17,1.17,0,0,1-.78-.58,1.29,1.29,0,0,1-.15-1,1.23,1.23,0,0,1,1.47-1l5.55,1.27a1.18,1.18,0,0,1,.77.58,1.31,1.31,0,0,1,.15,1,1.22,1.22,0,0,1-1.19,1m-5.55-3.16a.55.55,0,0,0-.43.85.43.43,0,0,0,.35.23l5.55,1.28a.55.55,0,0,0,.54-.85.44.44,0,0,0-.35-.24l-5.55-1.27Z"/><path class="a" d="M46.48,13.92c-.19-.31-4.9-7.21-11.91-7.48h-.2l4.17-3.2a1,1,0,0,0,.34-.89.85.85,0,0,0-.57-.73c-4.48-1.74-8.18-1.7-11,0a10.11,10.11,0,0,0-3.82,4.47,11.39,11.39,0,0,0-1.08-1.81,9.12,9.12,0,0,0-3.51-3.05C16.14-.12,12.67,0,8.58,1.58A.87.87,0,0,0,8,2.31a.94.94,0,0,0,.35.89l4.16,3.2h-.19C5.26,6.71.6,13.61.41,13.88a.92.92,0,0,0,0,1,.89.89,0,0,0,.81.5h7.4A14.71,14.71,0,0,0,3.8,22.78a22.35,22.35,0,0,0-.89,6.44.91.91,0,0,0,.5.81.74.74,0,0,0,.39.12A.75.75,0,0,0,4.3,30l16.23-11.6L13.59,58.87H10.43a.93.93,0,0,0,0,1.85H24.16a.93.93,0,0,0,0-1.85h-3l5.17-40.52L42.55,30a.88.88,0,0,0,.5.15.62.62,0,0,0,.38-.12.9.9,0,0,0,.51-.81,21.88,21.88,0,0,0-.89-6.4,14.35,14.35,0,0,0-4.78-7.44h7.44a1,1,0,0,0,.81-.65.59.59,0,0,0,0-.77M28.2,3.24c2-1.24,4.67-1.39,7.83-.47l-5.4,4.17a17.12,17.12,0,0,0-7,4.74c.46-2.58,1.58-6.55,4.58-8.44M10.86,2.77c2.89-.84,5.32-.81,7.24.16s3.44,2.89,4.4,5.66c-.19.66-.35,1.32-.46,1.89A15.94,15.94,0,0,0,16.25,7ZM3.07,13.53c1.69-1.93,5.09-5,9.33-5.2,3.39-.16,6.74,1.61,10,5.2ZM4.8,27.37a19.71,19.71,0,0,1,.77-4.05c1.2-3.93,3.43-6.63,6.67-7.94h9.3ZM15.44,58.8,22.38,17l1-.73,1,.73L19.41,58.8Zm17.7-45.27h0a.93.93,0,1,0,0,1.85h1.5c3.24,1.31,5.52,4,6.67,7.94a21.16,21.16,0,0,1,.77,4.05l-16.73-12h2.74a.93.93,0,0,0,0-1.85H24.46c3.24-3.59,6.64-5.36,10-5.2A12.5,12.5,0,0,1,42,11.72a15.45,15.45,0,0,1,1.81,1.85Z"/><path class="a" d="M24.23,61H10.47a1.23,1.23,0,0,1,0-2.46H13.4L20.15,19,4.53,30.19a1.16,1.16,0,0,1-1.23.07,1.14,1.14,0,0,1-.66-1,22.67,22.67,0,0,1,.89-6.51,15,15,0,0,1,4.28-7.06H1.18a1.16,1.16,0,0,1-1-.65,1.25,1.25,0,0,1,.07-1.28c.2-.3,4.71-6.94,11.57-7.59L8.19,3.43A1.23,1.23,0,0,1,8.5,1.31C12.67-.31,16.21-.43,19,1a9.37,9.37,0,0,1,3.58,3.16c.31.43.58.89.85,1.35a10.38,10.38,0,0,1,3.7-4.08C30.1-.43,33.87-.43,38.42,1.31a1.21,1.21,0,0,1,.77,1,1.22,1.22,0,0,1-.46,1.16L35.18,6.17c6.87.65,11.38,7.28,11.57,7.59a1.08,1.08,0,0,1,.08,1.12,1.31,1.31,0,0,1-1,.81H39.16a15.1,15.1,0,0,1,4.27,7.06,22.26,22.26,0,0,1,.89,6.51,1.16,1.16,0,0,1-.65,1,1.28,1.28,0,0,1-1.24-.07L26.62,18.89,21.57,58.53h2.66a1.21,1.21,0,0,1,0,2.42M10.47,59.1a.65.65,0,0,0-.62.66.64.64,0,0,0,.62.65H24.2a.63.63,0,0,0,.61-.65.64.64,0,0,0-.61-.66H20.92l5.17-41.29L42.7,29.72a.58.58,0,0,0,.62,0,.66.66,0,0,0,.35-.54,21.36,21.36,0,0,0-.89-6.32,14.18,14.18,0,0,0-4.67-7.29l-.65-.5h8.25c.15,0,.39-.19.54-.5s.12-.31,0-.54S41.39,7,34.53,6.71l-1,0L38.31,3a.66.66,0,0,0-.16-1.12c-4.35-1.7-8-1.7-10.75,0a9.93,9.93,0,0,0-3.74,4.35l-.27.54-.27-.54a12.12,12.12,0,0,0-1-1.77,9.32,9.32,0,0,0-3.4-3C16,.19,12.63.31,8.62,1.85a.6.6,0,0,0-.39.5A.74.74,0,0,0,8.47,3l4.78,3.7-1,0C5.34,7,.75,13.8.56,14.07a.7.7,0,0,0,0,.66.66.66,0,0,0,.54.34H9.31l-.65.5A14.09,14.09,0,0,0,4,22.86a21.15,21.15,0,0,0-.88,6.32.59.59,0,0,0,.34.54.6.6,0,0,0,.62,0l16.77-12L13.9,59.1Zm9.21,0H15.14l0-.34,7-41.91,1.31-.93,1.35,1,0,.15Zm-3.89-.57h3.35l5-41.38-.74-.54-.77.54ZM4.46,28l0-.62a18.63,18.63,0,0,1,.77-4.08c1.2-4.05,3.51-6.79,6.87-8.14l0,0H22.38Zm7.86-12.3q-4.74,2-6.48,7.75a19.32,19.32,0,0,0-.69,3.36L20.61,15.65ZM42.43,28l-18-12.88h3.62a.66.66,0,0,0,0-1.31H23.81l.42-.5C27.55,9.6,31,7.79,34.45,7.94a13,13,0,0,1,7.71,3.47A20.19,20.19,0,0,1,44,13.26l.43.46H33.1a.6.6,0,0,0-.42.2.61.61,0,0,0-.19.46.63.63,0,0,0,.61.65h1.58l0,0c3.36,1.35,5.63,4.09,6.86,8.14a19,19,0,0,1,.78,4.09ZM26.28,15.65,41.74,26.76A19.44,19.44,0,0,0,41,23.4q-1.73-5.77-6.47-7.75H33.1a1.24,1.24,0,0,1,0-2.47h10a16.59,16.59,0,0,0-1.35-1.31,12.38,12.38,0,0,0-7.37-3.31c-3.16-.12-6.28,1.42-9.33,4.62h3a1.24,1.24,0,0,1,0,2.47Zm-3.2-1.85H2.41l.43-.46C4.53,11.41,8,8.21,12.4,8c3.47-.16,6.94,1.66,10.25,5.32ZM3.72,13.22H21.77C18.72,10,15.56,8.44,12.44,8.6c-3.86.15-7,2.77-8.72,4.62m19.47-.65.16-.93C23.81,8.71,25,4.86,28.05,3c2.12-1.32,4.82-1.47,8.1-.51l.54.16L30.75,7.25a17,17,0,0,0-6.9,4.66Zm5.17-9.06c-2.62,1.62-3.78,5-4.28,7.32a17.52,17.52,0,0,1,6.4-4.12l4.9-3.78c-2.82-.77-5.17-.58-7,.58m-6.17,7.55-.38-.34a15.38,15.38,0,0,0-5.67-3.47l-.08,0L10.2,2.66l.54-.16c3-.88,5.47-.81,7.48.16s3.55,3,4.55,5.82l0,.08,0,.07a14.29,14.29,0,0,0-.46,1.85ZM16.37,6.71a16.11,16.11,0,0,1,5.47,3.23l.35-1.34c-.92-2.66-2.35-4.52-4.2-5.4a9.19,9.19,0,0,0-6.52-.27Z"/><path class="a" d="M26.7,47.42c1.58-7.25,9-12.41,16.2-10.8s11.64,9.26,10,16.51l-2.31-1.39S52,41.68,42.51,38.9c0,0-9.18-2.47-13,8.21Z"/><path class="a" d="M3.65,58.6H2.91a1.16,1.16,0,0,0-1.15,1.16,1.14,1.14,0,0,0,1.15,1.16H61.29a1.16,1.16,0,0,0,0-2.32H5.92"/><path class="a" d="M6.31,58.22h55a1.54,1.54,0,0,1,0,3.08H2.91a1.54,1.54,0,0,1,0-3.08h3.4ZM4,59H2.91a.77.77,0,0,0,0,1.54H61.29a.77.77,0,0,0,0-1.54H5.53"/><path class="a" d="M56.08,58.6c-2.43-7-10.41-13.3-19.39-13.3a27.65,27.65,0,0,0-14.62,4.36l-.57,4.05c3.58-3.51,9.75-5.79,15.19-5.79,7,0,13.76,5.36,16,10.68"/></svg>