<svg xmlns="http://www.w3.org/2000/svg" viewBox="0 0 60.57 60.43"><defs><style>.a{fill:#555353;}</style></defs><path class="a" d="M57.25,58.13h-1V26.86A8.09,8.09,0,0,0,60,20.07a.89.89,0,0,0-.12-.43L53,2A2.71,2.71,0,0,0,50.59.59H10A2.76,2.76,0,0,0,7.59,2L.69,19.62a.85.85,0,0,0-.12.43,8.08,8.08,0,0,0,3.72,6.8V58.11h-1a.88.88,0,0,0,0,1.75h54a.87.87,0,0,0,.88-.88.86.86,0,0,0-.88-.85M2.37,20.92H5.16a.87.87,0,1,0,0-1.74H3L9.11,2.82a1,1,0,0,1,.86-.5H50.59a1,1,0,0,1,.86.5l6.16,16.36H55.39a.87.87,0,1,0,0,1.74h2.79a6.33,6.33,0,0,1-12.55,0h6a.87.87,0,0,0,0-1.74H13.17a.87.87,0,1,0,0,1.74h1.76a6.34,6.34,0,0,1-12.56,0m41.4,0a6.34,6.34,0,0,1-12.56,0Zm-14.42,0a6.34,6.34,0,0,1-12.56,0ZM49.87,58.13H6V27.7a7.78,7.78,0,0,0,2.61.45,8.06,8.06,0,0,0,7.21-4.44,8.07,8.07,0,0,0,14.42,0,8.07,8.07,0,0,0,14.42,0,8.06,8.06,0,0,0,7.2,4.44,7.79,7.79,0,0,0,2.62-.45V58.13H49.87Z"/><path class="a" d="M57.25,60.43H3.3a1.45,1.45,0,0,1,0-2.89h.42V27.16A8.65,8.65,0,0,1,0,20.05a1.42,1.42,0,0,1,.17-.67L7.08,1.7v0A3.31,3.31,0,0,1,10,0H50.59a3.33,3.33,0,0,1,2.87,1.66l0,.07L60.4,19.37a1.42,1.42,0,0,1,.17.67,8.67,8.67,0,0,1-3.72,7.11V57.54h.42A1.43,1.43,0,0,1,58.71,59a1.46,1.46,0,0,1-1.46,1.45M3.3,58.7A.31.31,0,0,0,3,59a.29.29,0,0,0,.3.3h54a.3.3,0,0,0,0-.6H55.69V26.55l.26-.18a7.49,7.49,0,0,0,3.46-6.32.21.21,0,0,0,0-.14l0-.07L52.45,2.2a2.16,2.16,0,0,0-1.86-1.06H10A2.16,2.16,0,0,0,8.11,2.2L1.2,19.88v0a.3.3,0,0,0-.05.15A7.49,7.49,0,0,0,4.6,26.39l.26.17V58.71H3.3Zm51.79,0H5.46V26.9l.76.26a7.52,7.52,0,0,0,9.13-3.72l.51-1,.52,1a7.49,7.49,0,0,0,13.38,0l.52-1,.51,1a7.5,7.5,0,0,0,13.39,0l.52-1,.51,1a7.47,7.47,0,0,0,6.69,4.12,7.8,7.8,0,0,0,2.44-.4l.75-.26ZM6.61,57.55H54V28.46a8.84,8.84,0,0,1-2.05.24,8.56,8.56,0,0,1-7.2-3.87,8.65,8.65,0,0,1-14.42,0,8.65,8.65,0,0,1-14.42,0A8.6,8.6,0,0,1,8.65,28.7a8.82,8.82,0,0,1-2-.24ZM51.9,27a7,7,0,0,1-6.85-6L45,20.37h6.71a.31.31,0,0,0,.3-.3.3.3,0,0,0-.3-.3H13.17a.29.29,0,0,0-.3.3.31.31,0,0,0,.3.3h2.42L15.5,21A6.92,6.92,0,0,1,1.8,21l-.08-.64H5.16a.3.3,0,1,0,0-.6h-3L8.58,2.57l0,0A1.55,1.55,0,0,1,10,1.74H50.59A1.58,1.58,0,0,1,52,2.53l0,0v.05l6.45,17.15h-3a.3.3,0,0,0-.3.3.31.31,0,0,0,.3.3h3.45l-.08.64a7,7,0,0,1-6.86,6M46.33,21.5a5.76,5.76,0,0,0,11.15,0h-2.1a1.45,1.45,0,1,1,0-2.89h1.4L50.93,3.07a.4.4,0,0,0-.34-.18H10a.4.4,0,0,0-.34.18L3.76,18.62H5.15a1.45,1.45,0,0,1,0,2.89H3.06a5.76,5.76,0,0,0,11.16,0H13.16a1.45,1.45,0,1,1,0-2.89h38.5a1.45,1.45,0,1,1,0,2.89H46.33ZM37.49,27a6.93,6.93,0,0,1-6.85-6l-.09-.64H44.42l-.08.64a7,7,0,0,1-6.85,6M31.91,21.5a5.76,5.76,0,0,0,11.16,0ZM23.07,27a6.94,6.94,0,0,1-6.85-6l-.09-.64H30l-.09.64a7,7,0,0,1-6.85,6M17.49,21.5a5.76,5.76,0,0,0,11.16,0Z"/><path class="a" d="M28.31,35.67c1.17,1.47,1.47,2,2,1.93.37-.07.92-.83,1.93-1.77,3.41-3.26,6.7-2.53,8,.57a1.43,1.43,0,0,0,2.15.87c.72-.53.72-1.21.35-2-2.23-5.27-8.94-5.57-12.65-.83h0C25.66,28.56,17,31.11,17,38.37,17,46,23,51.06,29.21,54a2.27,2.27,0,0,0,2,0c4.43-2.09,8.85-5.52,11.08-10,.38-.76.42-1.47-.34-1.93a1.62,1.62,0,0,0-2.34.69c-1.78,3.67-5.73,6.78-9.39,8.62C25,48.74,19.71,44,19.71,38.12c0-4.49,5.45-6.27,8.6-2.45"/><path class="a" d="M30.19,54.29a2.29,2.29,0,0,1-1-.23C24.6,51.9,16.88,47,16.84,38.36a7,7,0,0,1,4.73-6.89,7.75,7.75,0,0,1,8.62,2.73A8.19,8.19,0,0,1,37.62,31,6.71,6.71,0,0,1,43,35.14c.42,1,.3,1.66-.37,2.16h0a1.76,1.76,0,0,1-1.36.12,1.84,1.84,0,0,1-.92-1,3.93,3.93,0,0,0-2.83-2.53c-1.56-.3-3.33.41-5.08,2-.37.38-.71.72-.94,1-.46.49-.76.8-1,.83-.57.07-.87-.34-1.77-1.52l-.34-.45A5,5,0,0,0,22.71,34a4.17,4.17,0,0,0-2.8,4.17c0,5.86,5.38,10.59,10.37,13.1,4.28-2.16,7.77-5.38,9.31-8.56a1.65,1.65,0,0,1,1.1-.91,1.67,1.67,0,0,1,1.4.18c.69.42.8,1.13.35,2-1.93,4-6,7.65-11.13,10.07a3.21,3.21,0,0,1-1.12.21m-6.25-23a7.53,7.53,0,0,0-2.34.37,6.85,6.85,0,0,0-4.55,6.7c0,8.51,7.65,13.4,12.19,15.56a2.28,2.28,0,0,0,1.88,0c5.08-2.42,9.09-6.05,11-10,.41-.83.3-1.44-.3-1.82a1.62,1.62,0,0,0-1.25-.18,1.64,1.64,0,0,0-1,.83c-1.55,3.26-5.07,6.48-9.42,8.66h0C25.06,48.84,19.61,44,19.61,38.09a4.44,4.44,0,0,1,2.95-4.32,5.22,5.22,0,0,1,5.79,1.86l.34.46c.87,1.1,1.13,1.47,1.63,1.44.19,0,.49-.34.92-.8.27-.27.57-.6,1-1,1.78-1.66,3.64-2.42,5.23-2.09a4.22,4.22,0,0,1,2.94,2.65,1.57,1.57,0,0,0,.83.94,1.78,1.78,0,0,0,1.22-.11c.6-.46.68-1,.3-1.93a6.46,6.46,0,0,0-5.19-4.05,8.1,8.1,0,0,0-7.31,3.26l0,0h-.07s-.07,0-.07,0a7.78,7.78,0,0,0-6.11-3.16"/><path class="a" d="M23.94,31.55a6.78,6.78,0,0,0-2.23.37,6.57,6.57,0,0,0-4.35,6.44c0,8.32,7.57,13.13,12.05,15.26a2,2,0,0,0,1.63,0c5-2.39,9-6,10.9-9.84.48-1,0-1.33-.19-1.44a1.41,1.41,0,0,0-1-.16,1.31,1.31,0,0,0-.8.68c-1.58,3.27-5.15,6.56-9.54,8.79l-.15.07-.19-.07a23.86,23.86,0,0,1-7.27-5.41,12.2,12.2,0,0,1-3.4-8.14,4.78,4.78,0,0,1,3.15-4.62,5.48,5.48,0,0,1,6.09,1.93l.34.46c.8,1,1.06,1.36,1.33,1.33a4.18,4.18,0,0,0,.72-.69c.27-.27.6-.64,1-1,1.81-1.75,3.79-2.5,5.49-2.16a4.52,4.52,0,0,1,3.17,2.83,1.48,1.48,0,0,0,.69.8,1.26,1.26,0,0,0,.94-.07c.35-.27.6-.64.19-1.59a6.29,6.29,0,0,0-5-3.9,7.74,7.74,0,0,0-7,3.14l-.11.16H30l-.14-.16a7.52,7.52,0,0,0-5.91-3"/><path class="a" d="M30.19,53.92a2.28,2.28,0,0,1-.87-.19c-4.5-2.11-12.11-7-12.11-15.36a6.65,6.65,0,0,1,6.7-6.88,7.58,7.58,0,0,1,6,3.07l.12.11h.31l.07-.11a7.85,7.85,0,0,1,7.13-3.18,6.33,6.33,0,0,1,5,3.93c.42,1,.12,1.41-.23,1.71h0a1.28,1.28,0,0,1-1,.07,1.31,1.31,0,0,1-.71-.83,4.32,4.32,0,0,0-3.1-2.76c-1.66-.35-3.6.41-5.41,2.11l-1,1c-.37.37-.64.69-.8.72-.34,0-.6-.28-1.44-1.36l-.28-.46a5.43,5.43,0,0,0-6-1.89,4.67,4.67,0,0,0-3.06,4.51,12.08,12.08,0,0,0,3.38,8.06,23.69,23.69,0,0,0,7.26,5.41l.16.07.12-.07c4.34-2.19,7.9-5.49,9.49-8.74a1.42,1.42,0,0,1,.83-.71,1.34,1.34,0,0,1,1.1.15c.19.12.76.46.23,1.56-1.89,3.91-5.91,7.5-10.94,9.91a3,3,0,0,1-.89.16m-6.25-22.3a6.44,6.44,0,0,0-2.18.37,6.51,6.51,0,0,0-4.32,6.37c0,8.3,7.53,13.06,12,15.18a1.9,1.9,0,0,0,1.55,0c5-2.39,9-5.95,10.87-9.8.46-1,0-1.22-.15-1.33a1.25,1.25,0,0,0-1-.16,1.08,1.08,0,0,0-.71.6c-1.59,3.33-5.19,6.62-9.59,8.83l-.18.11L30,51.72a24.69,24.69,0,0,1-7.31-5.45,12.29,12.29,0,0,1-3.45-8.18,4.8,4.8,0,0,1,3.22-4.69,5.62,5.62,0,0,1,6.21,2l.34.46c.76,1,1,1.28,1.24,1.28a7.64,7.64,0,0,0,.69-.64c.27-.27.6-.64,1-1,1.86-1.75,3.82-2.54,5.56-2.16a4.59,4.59,0,0,1,3.22,2.87,1.21,1.21,0,0,0,.6.72,1.29,1.29,0,0,0,.87-.07c.3-.23.53-.58.16-1.48a6.1,6.1,0,0,0-4.88-3.82,7.6,7.6,0,0,0-6.92,3.11l-.16.18h-.5l-.15-.18a7.34,7.34,0,0,0-5.8-3"/></svg>