<svg xmlns="http://www.w3.org/2000/svg" viewBox="0 0 62.1 61.25"><defs><style>.a{fill:#555353;}</style></defs><path class="a" d="M61.67,46.72l-9.89-42a1.12,1.12,0,0,0-1.07-1,1.18,1.18,0,0,0-1.08,1L46.07,19.43A45.43,45.43,0,0,0,44,11.69a13.31,13.31,0,0,0-.92-2.19c-.54-.95-1.15-1-1.57-.8s-.88,1.11-.23,2.38c.34.76.38,1,.73,1.87a59.88,59.88,0,0,1,3.25,19.82c0,6.71-4.33,12.26-9.88,12.92v-4.6l4.06-4.8a1.49,1.49,0,0,0,0-1.83,1,1,0,0,0-1.53,0l-2.53,3V27.63a1.13,1.13,0,1,0-2.23,0V31l-1.38-1.69a1,1,0,0,0-1.53,0,1.5,1.5,0,0,0,0,1.84l2.95,3.53v5.4l-2.53-3a1,1,0,0,0-1.53,0,1.5,1.5,0,0,0,0,1.84l4.06,4.79v2C27.63,45,23.3,39.48,23.3,32.77a64.63,64.63,0,0,1,3.45-20.54C28.94,6.13,31.7,3,34.3,3c.88.07,2.07.3,3.49,2.26a1.28,1.28,0,0,0,1.5.46,1.56,1.56,0,0,0,.15-2.15C37.52,1.07,35.91.46,34.34.46c-3.56,0-7,3.56-9.54,10.77A84.92,84.92,0,0,0,22.08,22a12.65,12.65,0,0,0-7.82-2.76C6.4,19.2.38,24.8.38,34.07c0,11.08,5.83,16.14,13.15,16.79v7.82A1.21,1.21,0,0,0,14.64,60a1.21,1.21,0,0,0,1.11-1.3V50.86a13.67,13.67,0,0,0,10-6.32,12.12,12.12,0,0,0,7.48,3.71V58.68a1.12,1.12,0,1,0,2.22,0V48.29a11.1,11.1,0,0,0,4.41-1.38,1.33,1.33,0,0,0,.23.92,1.06,1.06,0,0,0,.88.5h8.78V58.72a1.12,1.12,0,1,0,2.22,0V48.33h8.78a1.11,1.11,0,0,0,.88-.5,5.13,5.13,0,0,0,0-1.11m-46,1.57v-4.6L19.7,38.9a1.5,1.5,0,0,0,0-1.84,1,1,0,0,0-1.53,0l-2.53,3V34.11a1.21,1.21,0,0,0-1.11-1.3,1.21,1.21,0,0,0-1.12,1.3v8.55l-2.53-3a1,1,0,0,0-1.53,0,1.5,1.5,0,0,0,0,1.84l4.06,4.79v2c-6.13-.65-11-5.79-11-14.18,0-7.86,5.06-12.3,11.69-12.3a10.94,10.94,0,0,1,7.36,3,43.54,43.54,0,0,0-.42,8,17.33,17.33,0,0,0,3,9.93,11.53,11.53,0,0,1-8.47,5.59m36.18-2.53V41.12l3-3.52a1.5,1.5,0,0,0,0-1.84,1,1,0,0,0-1.53,0l-1.42,1.69v-6a1.13,1.13,0,1,0-2.23,0v8.55l-.38-.46a1,1,0,0,0-1.53,0,1.5,1.5,0,0,0,0,1.84l2,2.3V45.8H42.31l.2-.81a16.77,16.77,0,0,0,5-12.18A64,64,0,0,0,47,25.33L50.75,9.24,59.18,45.8H51.82Z"/><path class="a" d="M50.74,60.4a1.58,1.58,0,0,1-1.45-1.68v-10h-8.4a1.49,1.49,0,0,1-1.18-.69,1.26,1.26,0,0,1-.23-.53,11.92,11.92,0,0,1-3.72,1.11V58.72a1.47,1.47,0,1,1-2.91,0V48.64a12.57,12.57,0,0,1-7.06-3.49,14.13,14.13,0,0,1-9.73,6.09v7.48A1.58,1.58,0,0,1,14.6,60.4a1.58,1.58,0,0,1-1.45-1.68V51.24C4.79,50.32,0,44.11,0,34.07,0,25,5.71,18.78,14.26,18.78a13.21,13.21,0,0,1,7.59,2.49A83.44,83.44,0,0,1,24.49,11c2.61-7.21,6-11,9.89-11,2,0,3.68,1,5.4,3.3A2.08,2.08,0,0,1,40.21,5a1.42,1.42,0,0,1-.66,1,1.59,1.59,0,0,1-1.95-.54c-1.3-1.84-2.34-2.07-3.22-2.15-2.49,0-5.14,3.26-7.17,8.94A63.63,63.63,0,0,0,23.8,32.65C23.8,39,27.71,44.27,33,45.11V43.73l-4-4.67a1.79,1.79,0,0,1,0-2.34,1.26,1.26,0,0,1,1-.5,1.42,1.42,0,0,1,1,.5l1.87,2.22V34.69l-2.87-3.41a1.79,1.79,0,0,1,0-2.34,1.27,1.27,0,0,1,1-.5,1.4,1.4,0,0,1,1,.5l.77.92V27.52a1.47,1.47,0,1,1,2.91,0v8.81l1.88-2.22a1.29,1.29,0,0,1,1-.5,1.38,1.38,0,0,1,1,.5,1.79,1.79,0,0,1,0,2.34l-4,4.68v4C41,44.27,44.92,39,44.92,32.65A58.41,58.41,0,0,0,41.7,13c-.08-.23-.15-.42-.19-.57-.16-.46-.27-.73-.5-1.27a2.54,2.54,0,0,1-.31-2,1.34,1.34,0,0,1,.73-.88c.27-.12,1.23-.46,2,1a13.16,13.16,0,0,1,.81,1.84l.15.42a44.12,44.12,0,0,1,1.76,6.17L49.36,4.56A1.54,1.54,0,0,1,50.78,3.3,1.52,1.52,0,0,1,52.2,4.56l9.85,42A1.91,1.91,0,0,1,61.82,48a1.46,1.46,0,0,1-1.19.69H52.24v10a1.67,1.67,0,0,1-1.5,1.76M40.21,46.26l0,.69a1,1,0,0,0,.15.65.68.68,0,0,0,.57.35H50V58.72a.75.75,0,1,0,1.45,0V48H60.6a.67.67,0,0,0,.57-.35,1,1,0,0,0,.12-.8l-9.86-42a.76.76,0,0,0-.69-.65.78.78,0,0,0-.69.65l-4,16.4-.31-1.68a41.47,41.47,0,0,0-2.07-7.67l-.15-.42c-.27-.69-.35-.92-.73-1.73-.23-.42-.61-.84-1.11-.61a.62.62,0,0,0-.31.42,1.74,1.74,0,0,0,.27,1.38c.27.62.39.92.54,1.35,0,.15.11.34.19.57a59,59,0,0,1,3.26,20c0,6.9-4.41,12.61-10.2,13.3l-.42,0V41l4.18-4.9a1,1,0,0,0,0-1.31.67.67,0,0,0-1,0l-3.14,3.72V27.63a.75.75,0,1,0-1.46,0V32l-2.07-2.45a.64.64,0,0,0-1,0,1,1,0,0,0,0,1.3l3.06,3.61v6.59l-3.14-3.72a.65.65,0,0,0-1,0,1.05,1.05,0,0,0,0,1.3l4.18,4.91v2.57l-.42,0C27.4,45.38,23,39.67,23,32.77a64.14,64.14,0,0,1,3.49-20.66C28.59,6,31.39,2.68,34.26,2.68c1.15.08,2.34.43,3.76,2.42.31.38.81.5,1,.34a.66.66,0,0,0,.31-.54,1.37,1.37,0,0,0-.27-1.07c-2-2.64-3.56-3-4.83-3-3.48,0-6.78,3.72-9.19,10.51A89.22,89.22,0,0,0,22.35,22l-.12.61-.46-.34a12.29,12.29,0,0,0-7.59-2.69C6.09,19.59.65,25.41.65,34.11c0,9.7,4.68,15.68,12.84,16.41l.35,0v8.21a.86.86,0,0,0,.72.92.86.86,0,0,0,.73-.92V50.55l.35,0a13.45,13.45,0,0,0,9.77-6.14l.23-.38.31.31a11.76,11.76,0,0,0,7.28,3.6l.34,0V58.72a.75.75,0,1,0,1.46,0V48l.35,0a11.29,11.29,0,0,0,4.25-1.3Zm-25,2.45V43.54l4.18-4.91a1,1,0,0,0,0-1.3.65.65,0,0,0-1,0l-3.14,3.72V34.11a.86.86,0,0,0-.73-.92.86.86,0,0,0-.72.92v9.54l-3.15-3.71a.64.64,0,0,0-1,0,1,1,0,0,0,0,1.3l4.17,4.91v2.56l-.42,0C6.71,48,2.15,42.08,2.15,34.07c0-7.7,4.75-12.68,12.07-12.68a11.37,11.37,0,0,1,7.59,3l.15.16,0,.23a38.27,38.27,0,0,0-.42,6.71v1.26a17.22,17.22,0,0,0,2.95,9.7l.16.23-.16.23a12.22,12.22,0,0,1-8.77,5.75ZM14.18,22.19c-6.9,0-11.34,4.68-11.34,11.92,0,7.55,4,12.88,10.23,13.76V46.45l-4-4.67a1.81,1.81,0,0,1,0-2.34,1.29,1.29,0,0,1,1-.5,1.38,1.38,0,0,1,1,.5L13,41.66V34.11a1.58,1.58,0,0,1,1.46-1.68,1.58,1.58,0,0,1,1.45,1.68V39l1.88-2.23a1.29,1.29,0,0,1,1-.49,1.42,1.42,0,0,1,1,.49,1.79,1.79,0,0,1,0,2.34l-4,4.68v4a11.52,11.52,0,0,0,7.7-5.13,17.81,17.81,0,0,1-2.95-10V31.47A41.27,41.27,0,0,1,21,24.84a10.43,10.43,0,0,0-6.86-2.65m45.46,24H51.47V41l3.07-3.6a1,1,0,0,0,0-1.3.7.7,0,0,0-.5-.27.55.55,0,0,0-.5.27l-2.07,2.45v-7a.75.75,0,1,0-1.45,0v9.54l-1-1.23a.66.66,0,0,0-1,0,1,1,0,0,0,0,1.31l2,2.41v2.61H41.85l.31-1.42.08-.08A16.39,16.39,0,0,0,47.1,32.77a71.52,71.52,0,0,0-.42-7.44v-.07l4.1-17.71Zm-7.44-.77h6.52l-8-34.53L47.41,25.33a62,62,0,0,1,.42,7.44,17.09,17.09,0,0,1-5,12.38l0,.19h6.52V43.81l-1.84-2.19a1.78,1.78,0,0,1,0-2.33,1.27,1.27,0,0,1,1-.5,1.17,1.17,0,0,1,.81.27V31.51a1.47,1.47,0,1,1,2.91,0v4.9l.77-.92a1.3,1.3,0,0,1,1-.5,1.4,1.4,0,0,1,1,.5,1.81,1.81,0,0,1,0,2.34l-2.88,3.41v4.14Z"/><path class="a" d="M4.29,58.49H1.65a1.3,1.3,0,1,0,0,2.6H60.33a1.3,1.3,0,1,0,0-2.6h-56Z"/><path class="a" d="M60.37,61.25H1.65a1.46,1.46,0,1,1,0-2.92H60.33a1.46,1.46,0,0,1,1.45,1.46,1.43,1.43,0,0,1-1.41,1.46M1.65,58.64A1.16,1.16,0,0,0,.5,59.79a1.18,1.18,0,0,0,1.15,1.15H60.33a1.16,1.16,0,0,0,1.15-1.15,1.18,1.18,0,0,0-1.15-1.15Z"/><path class="a" d="M1.65,58.87a.92.92,0,0,0,0,1.84H60.33a.92.92,0,0,0,0-1.84Z"/><path class="a" d="M60.37,60.86H1.65a1.07,1.07,0,0,1,0-2.14H60.33a1.06,1.06,0,0,1,1,1.07,1,1,0,0,1-1,1.07M1.65,59a.76.76,0,0,0-.73.77.74.74,0,0,0,.73.77H60.33a.76.76,0,0,0,.72-.77.74.74,0,0,0-.72-.77Z"/></svg>