<svg xmlns="http://www.w3.org/2000/svg" viewBox="0 0 62.97 62.62"><defs><style>.a{fill:#555353;}</style></defs><path class="a" d="M29.7,4.93c1.22,1.53,1.53,2,2.12,2,.39-.08.94-.86,2-1.84,3.53-3.37,6.94-2.63,8.31.58a1.49,1.49,0,0,0,2.23.91c.74-.55.74-1.26.35-2.12C42.4-1,35.46-1.3,31.62,3.6h0C27-2.44,18,.19,18,7.71c0,7.92,6.31,13.13,12.69,16.19a2.35,2.35,0,0,0,2,0c4.59-2.16,9.17-5.72,11.48-10.39.4-.78.44-1.53-.35-2a1.7,1.7,0,0,0-2.43.71c-1.84,3.8-5.92,7-9.72,8.93-5.33-2.7-10.85-7.6-10.85-13.71,0-4.63,5.64-6.47,8.89-2.51"/><path class="a" d="M31.66,24.21A2.74,2.74,0,0,1,30.6,24c-4.74-2.24-12.73-7.33-12.77-16.27A7.3,7.3,0,0,1,22.73.58,8,8,0,0,1,31.66,3.4,8.46,8.46,0,0,1,39.34.07a7,7,0,0,1,5.53,4.31c.43,1,.31,1.73-.39,2.24h0A1.83,1.83,0,0,1,43,6.73a1.82,1.82,0,0,1-.94-1.06,4.07,4.07,0,0,0-2.94-2.62c-1.61-.31-3.45.43-5.25,2.11-.39.4-.75.75-1,1-.47.51-.79.83-1.06.87-.59.07-.9-.36-1.84-1.57L29.66,5A5.19,5.19,0,0,0,23.9,3.17,4.32,4.32,0,0,0,21,7.48c0,6.07,5.57,11,10.74,13.56,4.43-2.24,8-5.57,9.64-8.86A1.84,1.84,0,0,1,44,11.43c.7.44.82,1.18.35,2.12-2,4.12-6.19,7.92-11.52,10.43a3.09,3.09,0,0,1-1.14.23M25.2.34a7.33,7.33,0,0,0-2.43.4,7.09,7.09,0,0,0-4.71,6.93c0,8.82,7.92,13.88,12.62,16.11a2.47,2.47,0,0,0,2,0c5.25-2.51,9.41-6.27,11.41-10.35.43-.86.31-1.49-.32-1.88a1.61,1.61,0,0,0-2.31.67c-1.61,3.37-5.25,6.7-9.76,9h0c-5.25-2.62-10.89-7.6-10.89-13.75A4.61,4.61,0,0,1,23.79,3a5.4,5.4,0,0,1,6,1.92l.35.47C31,6.5,31.31,6.89,31.82,6.85c.2,0,.51-.35.94-.82.27-.28.59-.63,1-1,1.84-1.73,3.76-2.51,5.41-2.16A4.34,4.34,0,0,1,42.24,5.6a1.63,1.63,0,0,0,.87,1,1.8,1.8,0,0,0,1.25-.11c.63-.47.71-1.06.31-2A6.71,6.71,0,0,0,39.3.27a8.36,8.36,0,0,0-7.56,3.37l0,0h-.08s-.07,0-.07,0A8.15,8.15,0,0,0,25.2.34"/><path class="a" d="M25.2.66a6.77,6.77,0,0,0-6.82,7.05c0,8.62,7.84,13.6,12.46,15.8a2.16,2.16,0,0,0,1.69,0c5.21-2.47,9.32-6.2,11.28-10.19.51-1.06,0-1.38-.19-1.49a1.41,1.41,0,0,0-1.06-.16,1.36,1.36,0,0,0-.83.71c-1.64,3.37-5.32,6.78-9.87,9.09l-.16.08-.19-.08A24.16,24.16,0,0,1,24,15.86a12.59,12.59,0,0,1-3.52-8.42,4.93,4.93,0,0,1,3.25-4.78,5.68,5.68,0,0,1,6.31,2l.35.47c.82,1,1.1,1.41,1.37,1.37a5.31,5.31,0,0,0,.75-.71c.27-.27.62-.66,1-1,1.88-1.8,3.91-2.58,5.68-2.23a4.7,4.7,0,0,1,3.29,2.94,1.55,1.55,0,0,0,.7.82,1.23,1.23,0,0,0,1-.08c.36-.27.63-.66.2-1.64a6.45,6.45,0,0,0-5.13-4,8,8,0,0,0-7.29,3.25L31.82,4h-.39l-.12-.16A7.84,7.84,0,0,0,25.2.66"/><path class="a" d="M31.66,23.82a2.48,2.48,0,0,1-.9-.2C26.1,21.43,18.22,16.41,18.22,7.71A6.88,6.88,0,0,1,25.16.58a7.86,7.86,0,0,1,6.19,3.17l.12.12h.31l.08-.12A8.12,8.12,0,0,1,39.23.46a6.56,6.56,0,0,1,5.21,4.08c.43,1.06.12,1.45-.24,1.76h0a1.24,1.24,0,0,1-1,.08,1.4,1.4,0,0,1-.75-.86,4.46,4.46,0,0,0-3.21-2.86c-1.73-.36-3.72.43-5.61,2.19l-1,1c-.4.39-.67.71-.83.75-.35,0-.62-.28-1.49-1.42l-.27-.47a5.64,5.64,0,0,0-6.23-2,4.82,4.82,0,0,0-3.18,4.67A12.6,12.6,0,0,0,24,15.79a24.93,24.93,0,0,0,7.53,5.6l.15.08.12-.08c4.51-2.27,8.19-5.68,9.84-9a1.45,1.45,0,0,1,.86-.75,1.41,1.41,0,0,1,1.13.16c.2.12.79.47.24,1.61-2,4-6.11,7.75-11.33,10.26a2.24,2.24,0,0,1-.9.2M25.2.74a6.36,6.36,0,0,0-2.28.39,6.71,6.71,0,0,0-4.46,6.58c0,8.58,7.8,13.52,12.42,15.72a2,2,0,0,0,1.61,0c5.17-2.47,9.28-6.16,11.24-10.15.47-1,0-1.26-.15-1.37a1.25,1.25,0,0,0-1-.16,1.17,1.17,0,0,0-.75.63c-1.64,3.44-5.37,6.85-9.91,9.13l-.2.11-.27-.07A25.21,25.21,0,0,1,23.9,15.9a12.74,12.74,0,0,1-3.56-8.46,5,5,0,0,1,3.33-4.86,5.83,5.83,0,0,1,6.43,2l.35.47c.78,1,1.06,1.33,1.29,1.33a8.58,8.58,0,0,0,.71-.67c.27-.27.62-.66,1-1.06,1.92-1.8,4-2.62,5.76-2.23a4.74,4.74,0,0,1,3.33,3,1.19,1.19,0,0,0,.62.74,1.29,1.29,0,0,0,.91-.07c.31-.24.54-.59.15-1.53a6.31,6.31,0,0,0-5.05-4A7.89,7.89,0,0,0,32,3.83l-.16.2h-.51l-.16-.2a7.6,7.6,0,0,0-6-3.09"/><path class="a" d="M19.4,24A19.21,19.21,0,1,0,38.6,43.22,19.19,19.19,0,0,0,19.4,24m0,35.67A16.46,16.46,0,1,1,35.86,43.22,16.46,16.46,0,0,1,19.4,59.68"/><path class="a" d="M19.4,62.62a19.4,19.4,0,1,1,19.39-19.4A19.42,19.42,0,0,1,19.4,62.62m0-38.41a19,19,0,1,0,19,19,19,19,0,0,0-19-19m0,35.66A16.66,16.66,0,1,1,36.05,43.22,16.69,16.69,0,0,1,19.4,59.87M19.4,27A16.27,16.27,0,1,0,35.66,43.22,16.28,16.28,0,0,0,19.4,27"/><path class="a" d="M43.58,24a19.21,19.21,0,1,0,19.2,19.21A19.2,19.2,0,0,0,43.58,24m0,35.67A16.46,16.46,0,1,1,60,43.22,16.45,16.45,0,0,1,43.58,59.68"/><path class="a" d="M43.58,62.62A19.4,19.4,0,1,1,63,43.22a19.42,19.42,0,0,1-19.39,19.4m0-38.41a19,19,0,1,0,19,19,19,19,0,0,0-19-19m0,35.66A16.66,16.66,0,1,1,60.23,43.22,16.69,16.69,0,0,1,43.58,59.87m0-32.92A16.27,16.27,0,1,0,59.84,43.22,16.28,16.28,0,0,0,43.58,27"/></svg>